<svg width="276" height="102" viewBox="0 0 276 102" fill="none" xmlns="http://www.w3.org/2000/svg">
<path d="M19.1221 0.469253H22.6415V19.7086C22.6415 21.703 22.1722 23.4822 21.2337 25.0464C20.3083 26.5975 18.9983 27.8228 17.3037 28.7222C15.6092 29.6216 13.6214 30.0713 11.3403 30.0713C9.05921 30.0713 7.06488 29.6216 5.35732 28.7222C3.6628 27.8228 2.34628 26.5975 1.40777 25.0464C0.469268 23.4822 1.52752e-05 21.703 1.52752e-05 19.7086V0.469253H3.51941V19.4349C3.51941 20.8557 3.83225 22.1201 4.45792 23.228C5.08359 24.336 5.98299 25.2093 7.15613 25.848C8.32926 26.4737 9.72398 26.7865 11.3403 26.7865C12.9566 26.7865 14.3448 26.4737 15.5049 25.848C16.665 25.2093 17.5579 24.336 18.1836 23.228C18.8092 22.1201 19.1221 20.8557 19.1221 19.4349V0.469253ZM28.4493 37.7749V7.74268H31.6558V11.223H32.0469C32.2945 10.845 32.64 10.3627 33.0831 9.77611C33.5263 9.17651 34.165 8.64208 34.9993 8.17283C35.8335 7.70357 36.961 7.46895 38.3818 7.46895C40.2197 7.46895 41.836 7.93168 43.2307 8.85715C44.6255 9.76959 45.7139 11.0731 46.496 12.7676C47.2911 14.4491 47.6887 16.4369 47.6887 18.731C47.6887 21.0382 47.2976 23.0455 46.5155 24.7531C45.7334 26.4476 44.645 27.7576 43.2503 28.6831C41.8556 29.6086 40.2458 30.0713 38.4209 30.0713C37.0262 30.0713 35.9052 29.8367 35.0579 29.3674C34.2107 28.8851 33.5589 28.3442 33.1027 27.7446C32.6465 27.132 32.2945 26.6301 32.0469 26.2391H31.7731V37.7749H28.4493ZM37.9908 27.0603C39.3855 27.0603 40.5521 26.6888 41.4906 25.9458C42.4291 25.1898 43.133 24.1796 43.6022 22.9152C44.0845 21.6508 44.3257 20.2431 44.3257 18.6919C44.3257 17.1538 44.091 15.7656 43.6218 14.5273C43.1525 13.289 42.4487 12.3049 41.5102 11.5749C40.5847 10.845 39.4115 10.48 37.9908 10.48C36.6221 10.48 35.475 10.8254 34.5496 11.5163C33.6241 12.1941 32.9202 13.1521 32.4379 14.3904C31.9687 15.6157 31.734 17.0495 31.734 18.6919C31.734 20.3343 31.9752 21.7877 32.4575 23.0521C32.9398 24.3034 33.6436 25.2875 34.5691 26.0044C35.5076 26.7083 36.6482 27.0603 37.9908 27.0603ZM61.4737 7.74268V10.5973H50.1726V7.74268H61.4737ZM53.4573 2.54179H56.7812V23.3453C56.7812 24.4794 57.0158 25.3136 57.4851 25.848C57.9543 26.3694 58.6973 26.6301 59.714 26.6301C59.9356 26.6301 60.1637 26.6171 60.3984 26.591C60.646 26.5649 60.9133 26.5258 61.2 26.4737L61.9039 29.4847C61.5911 29.6021 61.2065 29.6933 60.7503 29.7585C60.3071 29.8367 59.8574 29.8758 59.4012 29.8758C57.6415 29.8758 56.2077 29.3544 55.0997 28.3116C54.0048 27.2688 53.4573 25.9132 53.4573 24.2447V2.54179ZM74.5941 30.0713C72.6258 30.0713 70.8987 29.6021 69.4127 28.6635C67.9268 27.725 66.7667 26.4085 65.9324 24.714C65.1112 23.0195 64.7006 21.0512 64.7006 18.8092C64.7006 16.5281 65.1112 14.5403 65.9324 12.8458C66.7667 11.1382 67.9268 9.81521 69.4127 8.87671C70.8987 7.9382 72.6258 7.46895 74.5941 7.46895C76.5754 7.46895 78.309 7.9382 79.795 8.87671C81.2809 9.81521 82.441 11.1382 83.2752 12.8458C84.1095 14.5403 84.5266 16.5281 84.5266 18.8092C84.5266 21.0512 84.1095 23.0195 83.2752 24.714C82.441 26.4085 81.2809 27.725 79.795 28.6635C78.309 29.6021 76.5754 30.0713 74.5941 30.0713ZM74.5941 27.0603C76.1061 27.0603 77.3444 26.6757 78.309 25.9067C79.2736 25.1376 79.9905 24.1274 80.4597 22.8761C80.929 21.6117 81.1636 20.2561 81.1636 18.8092C81.1636 17.3363 80.929 15.9676 80.4597 14.7033C79.9905 13.4389 79.2736 12.4222 78.309 11.6531C77.3444 10.871 76.1061 10.48 74.5941 10.48C73.0951 10.48 71.8633 10.871 70.8987 11.6531C69.9472 12.4222 69.2368 13.4389 68.7675 14.7033C68.2983 15.9676 68.0636 17.3363 68.0636 18.8092C68.0636 20.2561 68.2983 21.6117 68.7675 22.8761C69.2368 24.1274 69.9472 25.1376 70.8987 25.9067C71.8633 26.6757 73.0951 27.0603 74.5941 27.0603ZM108.343 0.0782089C109.542 0.0912437 110.735 0.319353 111.921 0.762536C113.12 1.20572 114.215 1.94219 115.206 2.97194C116.196 4.00169 116.985 5.40293 117.571 7.17566C118.171 8.9484 118.471 11.1708 118.471 13.843C118.471 16.4369 118.23 18.7375 117.747 20.7449C117.265 22.7392 116.561 24.4272 115.636 25.8089C114.723 27.1776 113.615 28.2204 112.312 28.9373C111.008 29.6412 109.542 29.9931 107.913 29.9931C106.283 29.9931 104.823 29.6672 103.533 29.0155C102.255 28.3637 101.213 27.4578 100.405 26.2977C99.5964 25.1376 99.075 23.7885 98.8404 22.2504H102.321C102.634 23.593 103.259 24.701 104.198 25.5743C105.136 26.4346 106.374 26.8647 107.913 26.8647C109.412 26.8647 110.702 26.4281 111.784 25.5547C112.866 24.6684 113.7 23.3845 114.287 21.703C114.886 20.0215 115.186 17.988 115.186 15.6027H114.951C114.417 16.3978 113.785 17.0886 113.055 17.6752C112.325 18.2487 111.517 18.6919 110.63 19.0048C109.744 19.3176 108.799 19.474 107.795 19.474C106.127 19.474 104.595 19.0634 103.201 18.2422C101.806 17.408 100.691 16.2674 99.8571 14.8206C99.0359 13.3607 98.6188 11.6922 98.6058 9.81521C98.6188 8.02944 99.0229 6.40009 99.818 4.92716C100.626 3.44119 101.754 2.25502 103.201 1.36866C104.66 0.482288 106.374 0.0521392 108.343 0.0782089ZM108.343 3.20656C107.157 3.20656 106.081 3.50636 105.117 4.10597C104.165 4.69253 103.416 5.48766 102.868 6.49134C102.321 7.48198 102.047 8.58994 102.047 9.81521C102.047 11.0274 102.308 12.1289 102.829 13.1195C103.363 14.1102 104.1 14.8988 105.038 15.4854C105.977 16.0589 107.039 16.3457 108.225 16.3457C109.425 16.3457 110.507 16.0393 111.471 15.4267C112.449 14.801 113.224 13.9864 113.798 12.9827C114.384 11.979 114.678 10.8971 114.678 9.737C114.678 8.60298 114.404 7.54064 113.856 6.54999C113.309 5.54631 112.56 4.73815 111.608 4.12552C110.656 3.51288 109.568 3.20656 108.343 3.20656ZM132.569 29.9931C130.431 29.9931 128.606 29.4065 127.094 28.2334C125.582 27.0603 124.428 25.3657 123.633 23.1498C122.838 20.9209 122.441 18.2227 122.441 15.0552C122.441 11.9008 122.838 9.20909 123.633 6.98014C124.442 4.73815 125.602 3.03059 127.114 1.85746C128.626 0.671293 130.444 0.0782089 132.569 0.0782089C134.693 0.0782089 136.512 0.671293 138.024 1.85746C139.536 3.03059 140.689 4.73815 141.485 6.98014C142.293 9.20909 142.697 11.9008 142.697 15.0552C142.697 18.2227 142.299 20.9209 141.504 23.1498C140.709 25.3657 139.555 27.0603 138.043 28.2334C136.544 29.4065 134.719 29.9931 132.569 29.9931ZM132.569 26.9038C134.016 26.9038 135.241 26.4411 136.245 25.5156C137.248 24.5771 138.011 23.2215 138.532 21.4488C139.067 19.676 139.334 17.5449 139.334 15.0552C139.334 12.5525 139.067 10.4148 138.532 8.64208C138.011 6.86935 137.248 5.51372 136.245 4.57522C135.241 3.63671 134.016 3.16746 132.569 3.16746C130.405 3.16746 128.736 4.21024 127.563 6.29581C126.39 8.38138 125.804 11.3012 125.804 15.0552C125.804 17.5449 126.064 19.676 126.586 21.4488C127.12 23.2215 127.889 24.5771 128.893 25.5156C129.91 26.4411 131.135 26.9038 132.569 26.9038ZM148.348 7.39074V5.86566C148.348 4.79681 148.57 3.8192 149.013 2.93283C149.456 2.04647 150.095 1.33607 150.929 0.801641C151.776 0.267214 152.806 0 154.018 0C155.257 0 156.293 0.267214 157.127 0.801641C157.961 1.33607 158.587 2.04647 159.004 2.93283C159.434 3.8192 159.649 4.79681 159.649 5.86566V7.39074C159.649 8.44656 159.434 9.42417 159.004 10.3236C158.574 11.2099 157.942 11.9203 157.108 12.4548C156.273 12.9892 155.244 13.2564 154.018 13.2564C152.793 13.2564 151.757 12.9892 150.909 12.4548C150.062 11.9203 149.424 11.2099 148.993 10.3236C148.563 9.42417 148.348 8.44656 148.348 7.39074ZM151.242 5.86566V7.39074C151.242 8.2771 151.45 9.06571 151.868 9.75656C152.285 10.4474 153.002 10.7928 154.018 10.7928C155.022 10.7928 155.726 10.4474 156.13 9.75656C156.547 9.06571 156.756 8.2771 156.756 7.39074V5.86566C156.756 4.9793 156.554 4.19069 156.149 3.49985C155.758 2.809 155.048 2.46358 154.018 2.46358C153.028 2.46358 152.317 2.809 151.887 3.49985C151.457 4.19069 151.242 4.9793 151.242 5.86566ZM166.023 24.2056V22.6806C166.023 21.6117 166.238 20.6341 166.669 19.7477C167.112 18.8614 167.757 18.151 168.604 17.6165C169.452 17.0821 170.481 16.8149 171.693 16.8149C172.932 16.8149 173.968 17.0821 174.802 17.6165C175.637 18.151 176.262 18.8614 176.679 19.7477C177.109 20.6341 177.325 21.6117 177.325 22.6806V24.2056C177.325 25.2615 177.109 26.2391 176.679 27.1385C176.249 28.0248 175.617 28.7352 174.783 29.2697C173.949 29.8041 172.919 30.0713 171.693 30.0713C170.468 30.0713 169.432 29.8041 168.585 29.2697C167.737 28.7352 167.099 28.0248 166.669 27.1385C166.238 26.2391 166.023 25.2615 166.023 24.2056ZM168.917 22.6806V24.2056C168.917 25.092 169.126 25.8806 169.543 26.5715C169.96 27.2623 170.677 27.6077 171.693 27.6077C172.697 27.6077 173.401 27.2623 173.805 26.5715C174.222 25.8806 174.431 25.092 174.431 24.2056V22.6806C174.431 21.7942 174.229 21.0056 173.825 20.3148C173.434 19.6239 172.723 19.2785 171.693 19.2785C170.703 19.2785 169.992 19.6239 169.562 20.3148C169.132 21.0056 168.917 21.7942 168.917 22.6806ZM151.203 29.6021L171.224 0.469253H174.47L154.448 29.6021H151.203ZM206.302 29.9931C203.826 29.9931 201.616 29.387 199.674 28.1747C197.732 26.9625 196.207 25.2419 195.099 23.013C193.991 20.771 193.437 18.1184 193.437 15.0552C193.437 11.979 193.991 9.31989 195.099 7.0779C196.207 4.83591 197.732 3.1088 199.674 1.89656C201.616 0.684328 203.826 0.0782089 206.302 0.0782089C207.762 0.0782089 209.138 0.293283 210.428 0.723432C211.731 1.15358 212.905 1.77925 213.947 2.60044C214.99 3.4086 215.857 4.40577 216.548 5.59193C217.252 6.76507 217.734 8.09462 217.995 9.58059H214.475C214.267 8.56387 213.902 7.67099 213.38 6.90193C212.872 6.13288 212.246 5.48766 211.503 4.96626C210.773 4.43184 209.965 4.03427 209.079 3.77358C208.193 3.49985 207.267 3.36298 206.302 3.36298C204.543 3.36298 202.946 3.81268 201.512 4.71208C200.078 5.59845 198.938 6.91497 198.091 8.66163C197.256 10.3953 196.839 12.5265 196.839 15.0552C196.839 17.5709 197.256 19.6956 198.091 21.4292C198.938 23.1629 200.078 24.4794 201.512 25.3788C202.946 26.2651 204.543 26.7083 206.302 26.7083C207.267 26.7083 208.193 26.578 209.079 26.3173C209.965 26.0436 210.773 25.646 211.503 25.1246C212.246 24.5902 212.872 23.9384 213.38 23.1694C213.902 22.4003 214.267 21.5074 214.475 20.4907H217.995C217.734 21.9897 217.252 23.3258 216.548 24.4989C215.857 25.6721 214.99 26.6692 213.947 27.4904C212.905 28.2986 211.731 28.9177 210.428 29.3479C209.138 29.778 207.762 29.9931 206.302 29.9931ZM231.311 30.0713C229.342 30.0713 227.615 29.6021 226.129 28.6635C224.643 27.725 223.483 26.4085 222.649 24.714C221.828 23.0195 221.417 21.0512 221.417 18.8092C221.417 16.5281 221.828 14.5403 222.649 12.8458C223.483 11.1382 224.643 9.81521 226.129 8.87671C227.615 7.9382 229.342 7.46895 231.311 7.46895C233.292 7.46895 235.025 7.9382 236.511 8.87671C237.997 9.81521 239.158 11.1382 239.992 12.8458C240.826 14.5403 241.243 16.5281 241.243 18.8092C241.243 21.0512 240.826 23.0195 239.992 24.714C239.158 26.4085 237.997 27.725 236.511 28.6635C235.025 29.6021 233.292 30.0713 231.311 30.0713ZM231.311 27.0603C232.823 27.0603 234.061 26.6757 235.025 25.9067C235.99 25.1376 236.707 24.1274 237.176 22.8761C237.645 21.6117 237.88 20.2561 237.88 18.8092C237.88 17.3363 237.645 15.9676 237.176 14.7033C236.707 13.4389 235.99 12.4222 235.025 11.6531C234.061 10.871 232.823 10.48 231.311 10.48C229.812 10.48 228.58 10.871 227.615 11.6531C226.664 12.4222 225.953 13.4389 225.484 14.7033C225.015 15.9676 224.78 17.3363 224.78 18.8092C224.78 20.2561 225.015 21.6117 225.484 22.8761C225.953 24.1274 226.664 25.1376 227.615 25.9067C228.58 26.6757 229.812 27.0603 231.311 27.0603ZM261.011 12.6698L258 13.491C257.713 12.748 257.218 12.0442 256.514 11.3794C255.823 10.7016 254.741 10.3627 253.268 10.3627C251.939 10.3627 250.831 10.6755 249.945 11.3012C249.058 11.9138 248.615 12.6829 248.615 13.6083C248.615 14.4426 248.915 15.1073 249.514 15.6027C250.127 16.098 251.079 16.5021 252.369 16.8149L255.615 17.597C257.557 18.0662 259.004 18.7897 259.955 19.7673C260.92 20.7449 261.402 21.9897 261.402 23.5018C261.402 24.7531 261.044 25.8741 260.327 26.8647C259.61 27.8554 258.613 28.6375 257.335 29.211C256.058 29.7845 254.572 30.0713 252.877 30.0713C251.391 30.0713 250.075 29.8562 248.928 29.4261C247.781 28.9829 246.836 28.3377 246.093 27.4904C245.35 26.6432 244.848 25.6004 244.587 24.3621L247.755 23.58C248.055 24.7531 248.628 25.633 249.475 26.2195C250.336 26.8061 251.457 27.0994 252.838 27.0994C254.389 27.0994 255.628 26.767 256.553 26.1022C257.492 25.4244 257.961 24.6228 257.961 23.6973C257.961 22.9282 257.694 22.2895 257.159 21.7812C256.625 21.2598 255.81 20.8687 254.715 20.608L251.079 19.7477C249.071 19.2655 247.598 18.529 246.66 17.5383C245.721 16.5477 245.252 15.3029 245.252 13.8039C245.252 12.5656 245.597 11.4706 246.288 10.5191C246.992 9.56755 247.95 8.82457 249.163 8.29014C250.375 7.74268 251.743 7.46895 253.268 7.46895C254.715 7.46895 255.947 7.69054 256.964 8.13372C257.994 8.56387 258.841 9.16999 259.506 9.95208C260.17 10.7211 260.672 11.6271 261.011 12.6698ZM275.148 7.74268V10.5973H263.847V7.74268H275.148ZM267.132 2.54179H270.456V23.3453C270.456 24.4794 270.69 25.3136 271.16 25.848C271.629 26.3694 272.372 26.6301 273.388 26.6301C273.61 26.6301 273.838 26.6171 274.073 26.591C274.32 26.5649 274.588 26.5258 274.874 26.4737L275.578 29.4847C275.266 29.6021 274.881 29.6933 274.425 29.7585C273.982 29.8367 273.532 29.8758 273.076 29.8758C271.316 29.8758 269.882 29.3544 268.774 28.3116C267.679 27.2688 267.132 25.9132 267.132 24.2447V2.54179ZM50.6614 93.6708V64.538H68.2584V67.6663H54.1808V77.4033H67.3199V80.5317H54.1808V90.5424H68.4539V93.6708H50.6614ZM83.0602 71.8114V74.666H71.2897V71.8114H83.0602ZM74.8091 93.6708V68.8003C74.8091 67.549 75.1024 66.5062 75.689 65.672C76.2886 64.8378 77.0577 64.2121 77.9962 63.795C78.9347 63.3779 79.9188 63.1693 80.9485 63.1693C81.7828 63.1693 82.4606 63.241 82.982 63.3844C83.5164 63.5147 83.9074 63.6386 84.1551 63.7559L83.1775 66.6496C83.008 66.5844 82.7734 66.5127 82.4736 66.4345C82.1868 66.3433 81.7958 66.2977 81.3005 66.2977C80.1925 66.2977 79.3844 66.5844 78.876 67.158C78.3807 67.7184 78.133 68.5396 78.133 69.6215V93.6708H74.8091ZM96.6889 71.8114V74.666H84.9184V71.8114H96.6889ZM88.4378 93.6708V68.8003C88.4378 67.549 88.7311 66.5062 89.3177 65.672C89.9173 64.8378 90.6863 64.2121 91.6248 63.795C92.5633 63.3779 93.5475 63.1693 94.5772 63.1693C95.4114 63.1693 96.0893 63.241 96.6106 63.3844C97.1451 63.5147 97.5361 63.6386 97.7838 63.7559L96.8062 66.6496C96.6367 66.5844 96.4021 66.5127 96.1023 66.4345C95.8155 66.3433 95.4245 66.2977 94.9292 66.2977C93.8212 66.2977 93.013 66.5844 92.5047 67.158C92.0094 67.7184 91.7617 68.5396 91.7617 69.6215V93.6708H88.4378ZM100.62 93.6708V71.8114H103.944V93.6708H100.62ZM102.301 68.1747C101.649 68.1747 101.089 67.9531 100.62 67.5099C100.15 67.0667 99.9157 66.5323 99.9157 65.9066C99.9157 65.2809 100.15 64.7465 100.62 64.3033C101.089 63.8601 101.649 63.6386 102.301 63.6386C102.953 63.6386 103.513 63.8601 103.983 64.3033C104.452 64.7465 104.686 65.2809 104.686 65.9066C104.686 66.5323 104.452 67.0667 103.983 67.5099C103.513 67.9531 102.953 68.1747 102.301 68.1747ZM118.159 94.14C116.125 94.14 114.366 93.6577 112.88 92.6931C111.407 91.7155 110.266 90.3795 109.458 88.6849C108.663 86.9904 108.265 85.0547 108.265 82.8779C108.265 80.649 108.676 78.6872 109.497 76.9927C110.318 75.2852 111.465 73.9491 112.938 72.9845C114.424 72.0199 116.151 71.5376 118.12 71.5376C119.658 71.5376 121.039 71.8244 122.265 72.3979C123.503 72.9584 124.513 73.7536 125.295 74.7833C126.09 75.8131 126.579 77.0123 126.762 78.3809H123.399C123.229 77.7161 122.923 77.0905 122.48 76.5039C122.037 75.9173 121.45 75.4481 120.72 75.0962C120.003 74.7312 119.149 74.5487 118.159 74.5487C116.855 74.5487 115.715 74.8876 114.737 75.5654C113.759 76.2432 112.997 77.2013 112.449 78.4396C111.902 79.6649 111.628 81.1052 111.628 82.7606C111.628 84.4421 111.896 85.915 112.43 87.1794C112.964 88.4308 113.72 89.4019 114.698 90.0927C115.689 90.7835 116.842 91.129 118.159 91.129C119.475 91.129 120.603 90.7901 121.541 90.1123C122.48 89.4214 123.099 88.4829 123.399 87.2967H126.762C126.579 88.5872 126.11 89.7473 125.354 90.777C124.611 91.8068 123.627 92.628 122.402 93.2406C121.189 93.8402 119.775 94.14 118.159 94.14ZM131.005 93.6708V71.8114H134.329V93.6708H131.005ZM132.687 68.1747C132.035 68.1747 131.475 67.9531 131.005 67.5099C130.536 67.0667 130.301 66.5323 130.301 65.9066C130.301 65.2809 130.536 64.7465 131.005 64.3033C131.475 63.8601 132.035 63.6386 132.687 63.6386C133.339 63.6386 133.899 63.8601 134.368 64.3033C134.838 64.7465 135.072 65.2809 135.072 65.9066C135.072 66.5323 134.838 67.0667 134.368 67.5099C133.899 67.9531 133.339 68.1747 132.687 68.1747ZM148.857 94.14C146.759 94.14 144.94 93.6708 143.402 92.7322C141.877 91.7937 140.704 90.4837 139.883 88.8023C139.062 87.1077 138.651 85.146 138.651 82.917C138.651 80.675 139.055 78.7003 139.863 76.9927C140.671 75.2852 141.805 73.9491 143.265 72.9845C144.738 72.0199 146.459 71.5376 148.427 71.5376C149.561 71.5376 150.689 71.7267 151.81 72.1047C152.931 72.4827 153.947 73.0953 154.86 73.9426C155.785 74.7898 156.522 75.9108 157.069 77.3056C157.617 78.7003 157.89 80.4144 157.89 82.4478V83.8946H141.036V81.0009H156.072L154.527 82.0958C154.527 80.6359 154.299 79.339 153.843 78.205C153.387 77.0709 152.703 76.178 151.79 75.5263C150.891 74.8746 149.77 74.5487 148.427 74.5487C147.085 74.5487 145.931 74.8811 144.966 75.5459C144.015 76.1976 143.285 77.0514 142.777 78.1072C142.268 79.163 142.014 80.297 142.014 81.5093V83.4254C142.014 85.0808 142.301 86.4821 142.874 87.6291C143.448 88.7762 144.249 89.6495 145.279 90.2491C146.309 90.8357 147.502 91.129 148.857 91.129C149.731 91.129 150.526 91.0051 151.243 90.7575C151.96 90.4968 152.579 90.1123 153.1 89.6039C153.622 89.0825 154.019 88.4438 154.293 87.6878L157.538 88.6263C157.2 89.7212 156.626 90.6858 155.818 91.52C155.023 92.3412 154.032 92.9864 152.846 93.4557C151.66 93.9119 150.33 94.14 148.857 94.14ZM165.458 80.5317V93.6708H162.134V71.8114H165.341V75.2526H165.653C166.162 74.1316 166.937 73.2322 167.98 72.5544C169.023 71.8766 170.372 71.5376 172.027 71.5376C173.5 71.5376 174.791 71.8374 175.899 72.437C177.007 73.0367 177.867 73.9491 178.48 75.1744C179.105 76.3866 179.418 77.9247 179.418 79.7887V93.6708H176.094V80.0233C176.094 78.3157 175.645 76.9797 174.745 76.0151C173.846 75.0375 172.621 74.5487 171.069 74.5487C170.001 74.5487 169.042 74.7833 168.195 75.2526C167.348 75.7218 166.677 76.3996 166.181 77.286C165.699 78.1724 165.458 79.2543 165.458 80.5317ZM193.633 94.14C191.6 94.14 189.84 93.6577 188.354 92.6931C186.881 91.7155 185.741 90.3795 184.933 88.6849C184.138 86.9904 183.74 85.0547 183.74 82.8779C183.74 80.649 184.151 78.6872 184.972 76.9927C185.793 75.2852 186.94 73.9491 188.413 72.9845C189.899 72.0199 191.626 71.5376 193.594 71.5376C195.132 71.5376 196.514 71.8244 197.739 72.3979C198.978 72.9584 199.988 73.7536 200.77 74.7833C201.565 75.8131 202.054 77.0123 202.236 78.3809H198.873C198.704 77.7161 198.398 77.0905 197.954 76.5039C197.511 75.9173 196.925 75.4481 196.195 75.0962C195.478 74.7312 194.624 74.5487 193.633 74.5487C192.33 74.5487 191.189 74.8876 190.212 75.5654C189.234 76.2432 188.472 77.2013 187.924 78.4396C187.377 79.6649 187.103 81.1052 187.103 82.7606C187.103 84.4421 187.37 85.915 187.905 87.1794C188.439 88.4308 189.195 89.4019 190.173 90.0927C191.163 90.7835 192.317 91.129 193.633 91.129C194.95 91.129 196.077 90.7901 197.016 90.1123C197.954 89.4214 198.574 88.4829 198.873 87.2967H202.236C202.054 88.5872 201.585 89.7473 200.829 90.777C200.086 91.8068 199.102 92.628 197.876 93.2406C196.664 93.8402 195.25 94.14 193.633 94.14ZM208.592 102C208.018 102 207.51 101.954 207.067 101.863C206.623 101.785 206.311 101.7 206.128 101.609L206.988 98.6761L207.321 98.7543C208.442 99.015 209.387 98.9564 210.156 98.5784C210.925 98.2004 211.59 97.2293 212.15 95.6651L212.815 93.7881L204.759 71.8114H208.396L214.418 89.252H214.653L220.675 71.8114H224.312L215.005 96.9946C214.588 98.1287 214.073 99.0672 213.46 99.8102C212.848 100.553 212.137 101.101 211.329 101.453C210.521 101.818 209.608 102 208.592 102Z" fill="url(#paint0_linear_513_1512)"/>
<defs>
<linearGradient id="paint0_linear_513_1512" x1="136.411" y1="-8.43874" x2="136.411" y2="103.681" gradientUnits="userSpaceOnUse">
<stop stop-color="white"/>
<stop offset="1" stop-color="white" stop-opacity="0.7"/>
</linearGradient>
</defs>
</svg>
