<svg width="48" height="48" viewBox="0 0 48 48" fill="none" xmlns="http://www.w3.org/2000/svg">
<mask id="mask0_513_1742" style="mask-type:luminance" maskUnits="userSpaceOnUse" x="6" y="10" width="36" height="28">
<path d="M42 10H6V37.8874H42V10Z" fill="white"/>
</mask>
<g mask="url(#mask0_513_1742)">
<path d="M36.4756 12.4836C34.181 11.4308 31.7204 10.6551 29.1478 10.2108C29.101 10.2023 29.0542 10.2237 29.03 10.2666C28.7136 10.8294 28.363 11.5636 28.1176 12.1407C25.3506 11.7265 22.5978 11.7265 19.8875 12.1407C19.642 11.5508 19.2787 10.8294 18.9609 10.2666C18.9367 10.2251 18.8899 10.2037 18.8431 10.2108C16.2719 10.6537 13.8113 11.4294 11.5154 12.4836C11.4955 12.4922 11.4785 12.5065 11.4672 12.525C6.80007 19.4976 5.52157 26.2988 6.14877 33.0156C6.15159 33.0484 6.17005 33.0798 6.19559 33.0998C9.27481 35.3612 12.2576 36.734 15.1849 37.644C15.2318 37.6582 15.2814 37.641 15.3112 37.6024C16.0037 36.6568 16.621 35.6598 17.1502 34.6112C17.1814 34.5498 17.1516 34.477 17.0878 34.4526C16.1087 34.0812 15.1764 33.6284 14.2796 33.1142C14.2087 33.0728 14.203 32.9712 14.2682 32.9226C14.457 32.7812 14.6457 32.6342 14.8259 32.4856C14.8585 32.4584 14.904 32.4528 14.9423 32.4698C20.834 35.1598 27.2124 35.1598 33.0344 32.4698C33.0728 32.4512 33.1182 32.457 33.1522 32.4842C33.3324 32.6328 33.5212 32.7812 33.7114 32.9226C33.7766 32.9712 33.7724 33.0728 33.7014 33.1142C32.8046 33.6384 31.8722 34.0812 30.8918 34.4512C30.828 34.4754 30.7996 34.5498 30.8308 34.6112C31.3714 35.6582 31.9886 36.6554 32.6684 37.601C32.6968 37.641 32.7478 37.6582 32.7946 37.644C35.7362 36.734 38.719 35.3612 41.7982 33.0998C41.8252 33.0798 41.8422 33.0498 41.845 33.017C42.5956 25.2516 40.5878 18.5062 36.5224 12.5264C36.5124 12.5065 36.4954 12.4922 36.4756 12.4836ZM18.03 28.9258C16.2562 28.9258 14.7947 27.2972 14.7947 25.2974C14.7947 23.2974 16.2279 21.669 18.03 21.669C19.8463 21.669 21.2938 23.3116 21.2654 25.2974C21.2654 27.2972 19.8321 28.9258 18.03 28.9258ZM29.9922 28.9258C28.2184 28.9258 26.7568 27.2972 26.7568 25.2974C26.7568 23.2974 28.19 21.669 29.9922 21.669C31.8084 21.669 33.2558 23.3116 33.2274 25.2974C33.2274 27.2972 31.8084 28.9258 29.9922 28.9258Z" fill="#9B96B0"/>
</g>
</svg>
