<svg width="152" height="35" viewBox="0 0 152 35" fill="none" xmlns="http://www.w3.org/2000/svg">
<path d="M0 27.2655V1.03852H16.2818V4.4357H3.96045V12.9375H15.1025V16.317H3.96045V27.2655H0ZM23.957 1.03852V27.2655H20.155V1.03852H23.957ZM36.8776 27.6703C34.9531 27.6703 33.2868 27.2537 31.8786 26.4206C30.4704 25.5874 29.3909 24.414 28.6398 22.9002C27.8888 21.3747 27.5133 19.5969 27.5133 17.5668C27.5133 15.5484 27.883 13.7706 28.6222 12.2334C29.3733 10.6961 30.4235 9.49921 31.773 8.64258C33.1225 7.77421 34.7125 7.34003 36.5431 7.34003C37.6579 7.34003 38.7375 7.52192 39.7819 7.88569C40.8263 8.24946 41.7651 8.82446 42.5982 9.61068C43.4314 10.3969 44.0885 11.4178 44.5696 12.6734C45.0625 13.929 45.3089 15.4428 45.3089 17.2147V18.5877H29.6608V15.7186H43.3375L41.5597 16.6691C41.5597 15.4604 41.3719 14.3926 40.9964 13.4655C40.6209 12.5385 40.0635 11.8168 39.3242 11.3005C38.585 10.7724 37.6638 10.5084 36.5607 10.5084C35.4577 10.5084 34.513 10.7724 33.7268 11.3005C32.9406 11.8285 32.3421 12.5267 31.9314 13.3951C31.5207 14.2635 31.3153 15.214 31.3153 16.2466V18.2005C31.3153 19.5499 31.55 20.6941 32.0194 21.6328C32.4888 22.5716 33.1401 23.2874 33.9732 23.7803C34.8181 24.2731 35.798 24.5196 36.9128 24.5196C37.6403 24.5196 38.2975 24.414 38.8842 24.2027C39.4827 23.9915 39.999 23.6747 40.4332 23.2522C40.8674 22.8298 41.1959 22.3076 41.4189 21.6856L45.0449 22.3721C44.7515 23.4282 44.2352 24.3553 43.4959 25.1532C42.7566 25.9512 41.8237 26.5731 40.6972 27.019C39.5824 27.4532 38.3092 27.6703 36.8776 27.6703ZM51.8224 7.58646L56.1524 15.2609L60.5177 7.58646H64.7246L58.5991 17.4436L64.7774 27.2655H60.5882L56.1524 19.9078L51.752 27.2655H47.5627L53.653 17.4436L47.6331 7.58646H51.8224ZM67.9817 27.2655V7.58646H71.7837V27.2655H67.9817ZM69.9003 4.55891C69.2432 4.55891 68.674 4.33596 68.1929 3.89004C67.7235 3.44412 67.4888 2.9102 67.4888 2.28826C67.4888 1.65459 67.7235 1.11479 68.1929 0.668875C68.674 0.222958 69.2432 0 69.9003 0C70.5574 0 71.1207 0.222958 71.5901 0.668875C72.0712 1.11479 72.3118 1.65459 72.3118 2.28826C72.3118 2.9102 72.0712 3.44412 71.5901 3.89004C71.1207 4.33596 70.5574 4.55891 69.9003 4.55891ZM85.9364 27.6527C84.7512 27.6527 83.7831 27.4532 83.0321 27.0543C82.2811 26.6435 81.6885 26.1683 81.2543 25.6285C80.8201 25.0887 80.4915 24.6134 80.2686 24.2027H79.9517V27.2655H76.2377V1.03852H80.0398V10.79H80.2686C80.4915 10.3793 80.8084 9.90405 81.2191 9.36426C81.6415 8.82446 82.2283 8.35508 82.9793 7.9561C83.7303 7.54538 84.716 7.34003 85.9364 7.34003C87.5206 7.34003 88.9288 7.73901 90.1609 8.53696C91.4048 9.33492 92.3846 10.4908 93.1004 12.0046C93.8162 13.5183 94.1742 15.3431 94.1742 17.4788C94.1742 19.591 93.8221 21.4099 93.118 22.9354C92.414 24.4492 91.44 25.6168 90.1961 26.4382C88.9522 27.2479 87.5323 27.6527 85.9364 27.6527ZM85.1091 24.3964C86.2474 24.3964 87.1979 24.0913 87.9606 23.4811C88.7351 22.8708 89.316 22.0436 89.7032 20.9992C90.0905 19.9431 90.2841 18.7579 90.2841 17.4436C90.2841 16.141 90.0905 14.9734 89.7032 13.9408C89.316 12.9081 88.741 12.0926 87.9783 11.4941C87.2272 10.8956 86.2709 10.5964 85.1091 10.5964C83.9943 10.5964 83.0556 10.8839 82.2928 11.4589C81.5418 12.0222 80.9668 12.8201 80.5678 13.8528C80.1806 14.8737 79.9869 16.0706 79.9869 17.4436C79.9869 18.8165 80.1806 20.0252 80.5678 21.0696C80.9668 22.114 81.5477 22.9295 82.3104 23.5163C83.0849 24.103 84.0178 24.3964 85.1091 24.3964ZM97.7305 27.2655V7.58646H101.532V27.2655H97.7305ZM99.6491 4.55891C98.9919 4.55891 98.4228 4.33596 97.9417 3.89004C97.4723 3.44412 97.2376 2.9102 97.2376 2.28826C97.2376 1.65459 97.4723 1.11479 97.9417 0.668875C98.4228 0.222958 98.9919 0 99.6491 0C100.306 0 100.869 0.222958 101.339 0.668875C101.82 1.11479 102.061 1.65459 102.061 2.28826C102.061 2.9102 101.82 3.44412 101.339 3.89004C100.869 4.33596 100.306 4.55891 99.6491 4.55891ZM109.789 1.03852V27.2655H105.986V1.03852H109.789ZM114.243 27.2655V7.58646H118.045V27.2655H114.243ZM116.161 4.55891C115.504 4.55891 114.935 4.33596 114.454 3.89004C113.984 3.44412 113.75 2.9102 113.75 2.28826C113.75 1.65459 113.984 1.11479 114.454 0.668875C114.935 0.222958 115.504 0 116.161 0C116.818 0 117.382 0.222958 117.851 0.668875C118.332 1.11479 118.573 1.65459 118.573 2.28826C118.573 2.9102 118.332 3.44412 117.851 3.89004C117.382 4.33596 116.818 4.55891 116.161 4.55891ZM131.652 7.58646V10.6668H120.932V7.58646H131.652ZM123.784 2.90433H127.603V21.492C127.603 22.3956 127.791 23.0586 128.166 23.4811C128.554 23.8918 129.158 24.0971 129.979 24.0971C130.179 24.0971 130.396 24.0854 130.631 24.0619C130.865 24.0384 131.094 24.0032 131.317 23.9563L132.039 27.1247C131.652 27.2537 131.229 27.3535 130.771 27.4239C130.314 27.4943 129.856 27.5295 129.399 27.5295C127.697 27.5295 126.336 27.0543 125.315 26.1037C124.294 25.1415 123.784 23.8624 123.784 22.2665V2.90433ZM137.567 34.7639C136.992 34.7639 136.469 34.7229 136 34.6407C135.531 34.5586 135.173 34.4588 134.926 34.3415L135.859 31.2259L136.123 31.2963C137.097 31.5428 137.924 31.5252 138.605 31.2435C139.297 30.9619 139.861 30.205 140.295 28.9729L140.805 27.5295L133.624 7.58646H137.725L142.689 22.865H142.9L147.881 7.58646H152L143.85 30.0114C143.475 31.044 143 31.9124 142.425 32.6165C141.85 33.3323 141.157 33.8662 140.348 34.2183C139.55 34.582 138.623 34.7639 137.567 34.7639Z" fill="white"/>
</svg>
