<svg width="48" height="48" viewBox="0 0 48 48" fill="none" xmlns="http://www.w3.org/2000/svg">
<path d="M32 20L34.4531 22.1144C35.4844 23.0033 36 23.4477 36 24C36 24.5523 35.4844 24.9967 34.4531 25.8856L32 28" stroke="url(#paint0_linear_513_1858)" stroke-width="1.5" stroke-linecap="round" stroke-linejoin="round"/>
<path d="M16 20L13.5469 22.1144C12.5156 23.0033 12 23.4477 12 24C12 24.5523 12.5156 24.9967 13.5469 25.8856L16 28" stroke="url(#paint1_linear_513_1858)" stroke-width="1.5" stroke-linecap="round" stroke-linejoin="round"/>
<path d="M26 18L22 30" stroke="url(#paint2_linear_513_1858)" stroke-width="1.5" stroke-linecap="round" stroke-linejoin="round"/>
<path d="M5 24C5 15.0433 5 10.565 7.78249 7.78249C10.565 5 15.0433 5 24 5C32.9567 5 37.435 5 40.2175 7.78249C43 10.565 43 15.0433 43 24C43 32.9567 43 37.435 40.2175 40.2175C37.435 43 32.9567 43 24 43C15.0433 43 10.565 43 7.78249 40.2175C5 37.435 5 32.9567 5 24Z" stroke="url(#paint3_linear_513_1858)" stroke-width="1.5"/>
<defs>
<linearGradient id="paint0_linear_513_1858" x1="34.0638" y1="19.8261" x2="34.0638" y2="28.1739" gradientUnits="userSpaceOnUse">
<stop stop-color="white"/>
<stop offset="1" stop-color="white" stop-opacity="0.2"/>
</linearGradient>
<linearGradient id="paint1_linear_513_1858" x1="13.9362" y1="19.8261" x2="13.9362" y2="28.1739" gradientUnits="userSpaceOnUse">
<stop stop-color="white"/>
<stop offset="1" stop-color="white" stop-opacity="0.2"/>
</linearGradient>
<linearGradient id="paint2_linear_513_1858" x1="23.9362" y1="17.7391" x2="23.9362" y2="30.2609" gradientUnits="userSpaceOnUse">
<stop stop-color="white"/>
<stop offset="1" stop-color="white" stop-opacity="0.2"/>
</linearGradient>
<linearGradient id="paint3_linear_513_1858" x1="23.3939" y1="4.17391" x2="23.3939" y2="43.8261" gradientUnits="userSpaceOnUse">
<stop stop-color="white"/>
<stop offset="1" stop-color="white" stop-opacity="0.2"/>
</linearGradient>
</defs>
</svg>
