<svg width="301" height="106" viewBox="0 0 301 106" fill="none" xmlns="http://www.w3.org/2000/svg">
<path d="M15.5751 37.0613C12.4789 37.0613 9.7579 36.3341 7.41225 34.8798C5.08224 33.4255 3.26045 31.3613 1.94689 28.6873C0.648963 25.9976 0 22.8153 0 19.1405C0 15.45 0.648963 12.2599 1.94689 9.57025C3.26045 6.88057 5.0666 4.80858 7.36534 3.35428C9.66407 1.89998 12.3068 1.17282 15.2936 1.17282C17.1389 1.17282 18.859 1.44648 20.4541 1.9938C22.0491 2.54112 23.4721 3.323 24.7231 4.33945C25.9742 5.3559 27.0141 6.56 27.8429 7.95175C28.6873 9.3435 29.2737 10.8838 29.6021 12.5727H25.2392C24.8639 11.4155 24.3713 10.3834 23.7614 9.47642C23.1672 8.5538 22.4479 7.77192 21.6034 7.13077C20.759 6.47399 19.8129 5.97359 18.7652 5.62956C17.7175 5.28553 16.5603 5.11351 15.2936 5.11351C13.2295 5.11351 11.3451 5.65301 9.64062 6.73201C7.95175 7.79537 6.59909 9.37478 5.58264 11.4702C4.58183 13.55 4.08143 16.1068 4.08143 19.1405C4.08143 22.1586 4.58965 24.7075 5.6061 26.7873C6.62255 28.8671 7.99866 30.4465 9.73444 31.5255C11.4702 32.5889 13.4171 33.1206 15.5751 33.1206C17.5767 33.1206 19.336 32.6905 20.8528 31.8305C22.3697 30.9704 23.5581 29.7585 24.4182 28.1947C25.2783 26.6153 25.7083 24.7544 25.7083 22.6121L27.0219 22.8701H16.5134V19.117H29.8367V22.8935C29.8367 25.7709 29.2268 28.2729 28.007 30.3996C26.7873 32.5107 25.0984 34.1526 22.9404 35.3255C20.7981 36.4827 18.343 37.0613 15.5751 37.0613ZM39.7322 1.64195V36.5921H35.7446V1.64195H39.7322ZM56.9461 37.1551C54.5848 37.1551 52.5128 36.5921 50.7301 35.4662C48.9474 34.3403 47.5557 32.7609 46.5549 30.728C45.5697 28.6951 45.0771 26.3338 45.0771 23.6441C45.0771 20.9075 45.5697 18.5228 46.5549 16.4899C47.5557 14.4414 48.9474 12.8542 50.7301 11.7282C52.5128 10.6023 54.5848 10.0394 56.9461 10.0394C59.323 10.0394 61.4028 10.6023 63.1855 11.7282C64.9682 12.8542 66.36 14.4414 67.3608 16.4899C68.3616 18.5228 68.862 20.9075 68.862 23.6441C68.862 26.3338 68.3616 28.6951 67.3608 30.728C66.36 32.7609 64.9682 34.3403 63.1855 35.4662C61.4028 36.5921 59.323 37.1551 56.9461 37.1551ZM56.9461 33.5428C58.7601 33.5428 60.2456 33.0815 61.4028 32.1588C62.56 31.2362 63.4201 30.0243 63.983 28.5231C64.546 27.0062 64.8275 25.3799 64.8275 23.6441C64.8275 21.8771 64.546 20.2351 63.983 18.7183C63.4201 17.2014 62.56 15.9817 61.4028 15.0591C60.2456 14.1208 58.7601 13.6517 56.9461 13.6517C55.1478 13.6517 53.67 14.1208 52.5128 15.0591C51.3713 15.9817 50.519 17.2014 49.9561 18.7183C49.3931 20.2351 49.1116 21.8771 49.1116 23.6441C49.1116 25.3799 49.3931 27.0062 49.9561 28.5231C50.519 30.0243 51.3713 31.2362 52.5128 32.1588C53.67 33.0815 55.1478 33.5428 56.9461 33.5428ZM86.1698 37.1551C84.4965 37.1551 83.1517 36.8736 82.1352 36.3106C81.1188 35.732 80.3369 35.0831 79.7896 34.3638C79.2423 33.6288 78.8201 33.0267 78.5229 32.5576H78.0538V36.5921H74.2069V1.64195H78.1945V14.543H78.5229C78.8201 14.0895 79.2344 13.5109 79.7661 12.8072C80.2978 12.0879 81.0641 11.4468 82.0649 10.8838C83.0657 10.3209 84.4183 10.0394 86.1228 10.0394C88.3277 10.0394 90.2668 10.5945 91.94 11.7048C93.6133 12.7994 94.919 14.3632 95.8573 16.3961C96.8112 18.4133 97.2881 20.7981 97.2881 23.5503C97.2881 26.3182 96.819 28.7264 95.8807 30.7749C94.9425 32.8078 93.6367 34.3794 91.9635 35.4897C90.2903 36.5999 88.359 37.1551 86.1698 37.1551ZM85.6537 33.5428C87.3269 33.5428 88.7265 33.0971 89.8524 32.2058C90.9783 31.2988 91.8228 30.0869 92.3857 28.57C92.9643 27.0531 93.2536 25.3643 93.2536 23.5034C93.2536 21.6582 92.9721 19.9927 92.4092 18.5072C91.8462 17.0216 91.0018 15.8409 89.8759 14.9652C88.7656 14.0895 87.3582 13.6517 85.6537 13.6517C84.0118 13.6517 82.6356 14.0661 81.5254 14.8949C80.4151 15.708 79.5707 16.8574 78.9921 18.343C78.4291 19.8129 78.1476 21.5331 78.1476 23.5034C78.1476 25.4737 78.4369 27.2173 79.0155 28.7342C79.5941 30.2354 80.4385 31.4161 81.5488 32.2761C82.6747 33.1206 84.043 33.5428 85.6537 33.5428ZM110.327 37.202C108.669 37.202 107.16 36.8892 105.8 36.2637C104.439 35.6226 103.36 34.7 102.563 33.4959C101.765 32.2918 101.366 30.8375 101.366 29.133C101.366 27.6317 101.664 26.4198 102.258 25.4972C102.852 24.5589 103.642 23.824 104.627 23.2923C105.628 22.745 106.722 22.3384 107.911 22.0726C109.115 21.8067 110.327 21.5956 111.547 21.4392C113.142 21.2359 114.44 21.0796 115.44 20.9701C116.441 20.8606 117.176 20.673 117.645 20.4071C118.114 20.1413 118.349 19.6878 118.349 19.0467V18.9059C118.349 17.78 118.138 16.8261 117.716 16.0442C117.309 15.2467 116.691 14.6447 115.863 14.2381C115.034 13.8159 114.002 13.6048 112.766 13.6048C111.484 13.6048 110.389 13.8002 109.482 14.1912C108.591 14.5821 107.856 15.0825 107.277 15.6924C106.699 16.2866 106.261 16.9043 105.964 17.5455L102.117 16.185C102.805 14.5899 103.72 13.3467 104.861 12.4554C106.019 11.564 107.27 10.9385 108.614 10.5789C109.975 10.2192 111.312 10.0394 112.626 10.0394C113.47 10.0394 114.44 10.141 115.534 10.3443C116.629 10.532 117.692 10.9385 118.724 11.564C119.772 12.1739 120.632 13.1044 121.304 14.3554C121.993 15.5907 122.337 17.2483 122.337 19.3281V36.5921H118.396V33.0267H118.114C117.849 33.5897 117.395 34.1996 116.754 34.8563C116.113 35.4975 115.26 36.0526 114.197 36.5218C113.149 36.9752 111.859 37.202 110.327 37.202ZM110.937 33.5897C112.532 33.5897 113.877 33.2769 114.971 32.6514C116.081 32.0259 116.918 31.2206 117.481 30.2354C118.06 29.2346 118.349 28.1947 118.349 27.1157V23.4096C118.177 23.6129 117.802 23.8005 117.223 23.9725C116.644 24.1289 115.98 24.2696 115.229 24.3947C114.479 24.5198 113.751 24.6293 113.048 24.7231C112.344 24.8013 111.781 24.8639 111.359 24.9108C110.311 25.0515 109.334 25.2783 108.427 25.591C107.52 25.8881 106.785 26.3338 106.222 26.928C105.675 27.5223 105.401 28.3354 105.401 29.3675C105.401 30.7593 105.917 31.8148 106.949 32.5341C107.997 33.2378 109.326 33.5897 110.937 33.5897ZM132.936 1.64195V36.5921H128.948V1.64195H132.936ZM175.714 1.64195H179.936V24.7231C179.936 27.1157 179.373 29.2502 178.247 31.1268C177.137 32.9876 175.566 34.4576 173.533 35.5366C171.5 36.6156 169.115 37.1551 166.378 37.1551C163.642 37.1551 161.249 36.6156 159.201 35.5366C157.168 34.4576 155.588 32.9876 154.463 31.1268C153.337 29.2502 152.774 27.1157 152.774 24.7231V1.64195H156.996V24.3947C156.996 26.0993 157.371 27.6161 158.122 28.9453C158.872 30.2745 159.951 31.3222 161.359 32.0885C162.766 32.8391 164.439 33.2144 166.378 33.2144C168.317 33.2144 169.983 32.8391 171.375 32.0885C172.766 31.3222 173.838 30.2745 174.588 28.9453C175.339 27.6161 175.714 26.0993 175.714 24.3947V1.64195ZM191.052 20.8294V36.5921H187.064V10.3678H190.911V14.4961H191.286C191.896 13.1513 192.826 12.0723 194.077 11.2591C195.328 10.446 196.947 10.0394 198.933 10.0394C200.7 10.0394 202.248 10.399 203.577 11.1184C204.906 11.8377 205.939 12.9323 206.674 14.4023C207.424 15.8566 207.799 17.7018 207.799 19.938V36.5921H203.812V20.2195C203.812 18.171 203.272 16.5681 202.193 15.4109C201.114 14.2381 199.644 13.6517 197.784 13.6517C196.501 13.6517 195.352 13.9332 194.335 14.4961C193.319 15.0591 192.514 15.8722 191.919 16.9356C191.341 17.9989 191.052 19.2969 191.052 20.8294ZM214.411 36.5921V10.3678H218.399V36.5921H214.411ZM216.428 6.00486C215.646 6.00486 214.974 5.73902 214.411 5.20734C213.848 4.67566 213.567 4.03452 213.567 3.28391C213.567 2.5333 213.848 1.89216 214.411 1.36048C214.974 0.828796 215.646 0.562956 216.428 0.562956C217.21 0.562956 217.883 0.828796 218.446 1.36048C219.009 1.89216 219.29 2.5333 219.29 3.28391C219.29 4.03452 219.009 4.67566 218.446 5.20734C217.883 5.73902 217.21 6.00486 216.428 6.00486ZM236.645 10.3678V13.7924H222.524V10.3678H236.645ZM226.746 36.5921V6.75547C226.746 5.25425 227.098 4.00324 227.802 3.00243C228.521 2.00162 229.444 1.25101 230.569 0.750608C231.695 0.250203 232.876 0 234.111 0C235.112 0 235.925 0.0860071 236.551 0.258021C237.192 0.414398 237.661 0.562956 237.958 0.703695L236.785 4.17525C236.582 4.09707 236.301 4.01106 235.941 3.91723C235.597 3.80777 235.128 3.75304 234.534 3.75304C233.204 3.75304 232.235 4.09707 231.625 4.78512C231.031 5.45754 230.734 6.44272 230.734 7.74064V36.5921H226.746ZM241.521 36.5921V10.3678H245.508V36.5921H241.521ZM243.538 6.00486C242.756 6.00486 242.083 5.73902 241.521 5.20734C240.958 4.67566 240.676 4.03452 240.676 3.28391C240.676 2.5333 240.958 1.89216 241.521 1.36048C242.083 0.828796 242.756 0.562956 243.538 0.562956C244.32 0.562956 244.992 0.828796 245.555 1.36048C246.118 1.89216 246.399 2.5333 246.399 3.28391C246.399 4.03452 246.118 4.67566 245.555 5.20734C244.992 5.73902 244.32 6.00486 243.538 6.00486ZM263.097 37.1551C260.58 37.1551 258.398 36.5921 256.553 35.4662C254.723 34.3403 253.316 32.7687 252.331 30.7515C251.346 28.7186 250.853 26.3651 250.853 23.6911C250.853 21.0014 251.338 18.6323 252.307 16.5837C253.277 14.5352 254.637 12.9323 256.389 11.7752C258.156 10.618 260.22 10.0394 262.581 10.0394C263.942 10.0394 265.294 10.2661 266.639 10.7196C267.984 11.1731 269.204 11.9081 270.298 12.9245C271.409 13.941 272.292 15.2858 272.949 16.959C273.606 18.6323 273.934 20.6886 273.934 23.1281V24.8639H253.715V21.3923H271.753L269.9 22.7059C269.9 20.9545 269.626 19.3985 269.079 18.038C268.531 16.6776 267.71 15.6064 266.616 14.8245C265.537 14.0426 264.192 13.6517 262.581 13.6517C260.971 13.6517 259.587 14.0504 258.429 14.848C257.288 15.6298 256.412 16.6541 255.802 17.9208C255.193 19.1874 254.888 20.5479 254.888 22.0022V24.3009C254.888 26.2869 255.232 27.968 255.92 29.3441C256.608 30.7202 257.569 31.7679 258.805 32.4872C260.04 33.1909 261.471 33.5428 263.097 33.5428C264.145 33.5428 265.099 33.3942 265.959 33.0971C266.819 32.7844 267.562 32.323 268.187 31.7132C268.813 31.0877 269.29 30.3214 269.618 29.4144L273.512 30.5403C273.105 31.8539 272.417 33.0111 271.448 34.0119C270.494 34.9971 269.305 35.7711 267.882 36.3341C266.459 36.8814 264.864 37.1551 263.097 37.1551ZM289.037 37.1551C286.848 37.1551 284.917 36.5999 283.243 35.4897C281.57 34.3794 280.264 32.8078 279.326 30.7749C278.388 28.7264 277.919 26.3182 277.919 23.5503C277.919 20.7981 278.388 18.4133 279.326 16.3961C280.28 14.3632 281.594 12.7994 283.267 11.7048C284.94 10.5945 286.879 10.0394 289.084 10.0394C290.804 10.0394 292.157 10.3209 293.142 10.8838C294.143 11.4468 294.909 12.0879 295.441 12.8072C295.972 13.5109 296.387 14.0895 296.684 14.543H297.012V1.64195H301V36.5921H297.153V32.5576H296.684C296.387 33.0267 295.965 33.6288 295.417 34.3638C294.87 35.0831 294.088 35.732 293.072 36.3106C292.071 36.8736 290.726 37.1551 289.037 37.1551ZM289.553 33.5428C291.179 33.5428 292.548 33.1206 293.658 32.2761C294.768 31.4161 295.613 30.2354 296.191 28.7342C296.77 27.2173 297.059 25.4737 297.059 23.5034C297.059 21.5331 296.778 19.8129 296.215 18.343C295.652 16.8574 294.807 15.708 293.681 14.8949C292.571 14.0661 291.195 13.6517 289.553 13.6517C287.864 13.6517 286.457 14.0895 285.331 14.9652C284.205 15.8409 283.361 17.0216 282.798 18.5072C282.235 19.9927 281.953 21.6582 281.953 23.5034C281.953 25.3643 282.235 27.0531 282.798 28.57C283.376 30.0869 284.229 31.2988 285.354 32.2058C286.48 33.0971 287.88 33.5428 289.553 33.5428ZM5.58264 69.697V104.647H1.36048V69.697H5.58264ZM16.6979 88.8844V104.647H12.7103V78.4229H16.5572V82.5512H16.9325C17.5423 81.2064 18.4728 80.1274 19.7238 79.3142C20.9748 78.501 22.5933 78.0945 24.5793 78.0945C26.3463 78.0945 27.8945 78.4541 29.2237 79.1735C30.5529 79.8928 31.5849 80.9874 32.3199 82.4574C33.0705 83.9117 33.4458 85.7569 33.4458 87.9931V104.647H29.4582V88.2746C29.4582 86.226 28.9187 84.6232 27.8397 83.466C26.7607 82.2932 25.2908 81.7068 23.4299 81.7068C22.1476 81.7068 20.9982 81.9882 19.9818 82.5512C18.9654 83.1142 18.16 83.9273 17.5658 84.9907C16.9872 86.054 16.6979 87.352 16.6979 88.8844ZM51.6918 78.4229V81.8475H37.571V78.4229H51.6918ZM41.7932 104.647V74.8106C41.7932 73.3093 42.1451 72.0583 42.8487 71.0575C43.5681 70.0567 44.4907 69.3061 45.6166 68.8057C46.7425 68.3053 47.9232 68.0551 49.1585 68.0551C50.1594 68.0551 50.9725 68.1411 51.598 68.3131C52.2392 68.4695 52.7083 68.618 53.0054 68.7588L51.8326 72.2303C51.6293 72.1522 51.3478 72.0661 50.9882 71.9723C50.6441 71.8629 50.175 71.8081 49.5808 71.8081C48.2516 71.8081 47.282 72.1522 46.6722 72.8402C46.0779 73.5126 45.7808 74.4978 45.7808 75.7957V104.647H41.7932ZM56.5677 104.647V78.4229H60.4145V82.4105H60.696C61.1808 81.1125 62.0487 80.0648 63.2997 79.2673C64.5663 78.4541 65.9815 78.0476 67.5453 78.0476C67.8424 78.0476 68.2099 78.0554 68.6478 78.071C69.0856 78.071 69.4218 78.0788 69.6564 78.0945V82.1759C69.5156 82.1446 69.2029 82.0977 68.7181 82.0352C68.2334 81.9726 67.7173 81.9413 67.17 81.9413C65.9033 81.9413 64.7696 82.2072 63.7688 82.7389C62.768 83.2705 61.9783 83.9977 61.3997 84.9203C60.8367 85.8429 60.5553 86.8985 60.5553 88.0869V104.647H56.5677ZM81.3346 105.257C79.677 105.257 78.168 104.944 76.8075 104.319C75.447 103.678 74.368 102.755 73.5705 101.551C72.773 100.347 72.3742 98.8926 72.3742 97.188C72.3742 95.6868 72.6713 94.4749 73.2656 93.5523C73.8598 92.614 74.6495 91.8791 75.6347 91.3474C76.6355 90.8001 77.7301 90.3935 78.9186 90.1276C80.1227 89.8618 81.3346 89.6507 82.5543 89.4943C84.1494 89.291 85.4473 89.1347 86.4481 89.0252C87.4489 88.9157 88.1839 88.7281 88.653 88.4622C89.1221 88.1964 89.3567 87.7429 89.3567 87.1018V86.961C89.3567 85.8351 89.1456 84.8812 88.7234 84.0993C88.3168 83.3018 87.6991 82.6998 86.8703 82.2932C86.0415 81.871 85.0094 81.6599 83.7741 81.6599C82.4918 81.6599 81.3971 81.8553 80.4902 82.2463C79.5988 82.6372 78.8638 83.1376 78.2852 83.7475C77.7067 84.3417 77.2688 84.9594 76.9717 85.6005L73.1248 84.2401C73.8129 82.645 74.7277 81.4018 75.8692 80.5105C77.0264 79.6191 78.2774 78.9936 79.6223 78.634C80.9827 78.2743 82.3198 78.0945 83.6333 78.0945C84.4778 78.0945 85.4473 78.1961 86.5419 78.3994C87.6366 78.5871 88.6999 78.9936 89.732 79.6191C90.7797 80.229 91.6398 81.1594 92.3122 82.4105C93.0003 83.6458 93.3443 85.3034 93.3443 87.3832V104.647H89.4036V101.082H89.1221C88.8563 101.645 88.4028 102.255 87.7617 102.911C87.1205 103.553 86.2683 104.108 85.2049 104.577C84.1572 105.03 82.8671 105.257 81.3346 105.257ZM81.9445 101.645C83.5395 101.645 84.8843 101.332 85.979 100.707C87.0892 100.081 87.9259 99.2757 88.4888 98.2905C89.0674 97.2897 89.3567 96.2498 89.3567 95.1708V91.4647C89.1847 91.668 88.8094 91.8556 88.2308 92.0276C87.6522 92.184 86.9876 92.3247 86.237 92.4498C85.4864 92.5749 84.7592 92.6844 84.0555 92.7782C83.3518 92.8564 82.7889 92.919 82.3667 92.9659C81.319 93.1066 80.3416 93.3334 79.4346 93.6461C78.5276 93.9432 77.7927 94.3889 77.2297 94.9831C76.6824 95.5774 76.4087 96.3905 76.4087 97.4226C76.4087 98.8144 76.9248 99.8699 77.9569 100.589C79.0046 101.293 80.3338 101.645 81.9445 101.645ZM118.487 84.3339L114.874 85.3191C114.53 84.4277 113.936 83.5833 113.092 82.7858C112.263 81.9726 110.965 81.566 109.198 81.566C107.603 81.566 106.274 81.9413 105.21 82.6919C104.147 83.4269 103.615 84.3495 103.615 85.4598C103.615 86.4606 103.975 87.2581 104.694 87.8524C105.429 88.4466 106.571 88.9314 108.119 89.3067L112.013 90.2449C114.343 90.8079 116.078 91.6758 117.22 92.8486C118.377 94.0214 118.956 95.5148 118.956 97.3288C118.956 98.83 118.526 100.175 117.666 101.363C116.805 102.552 115.609 103.49 114.077 104.178C112.544 104.866 110.762 105.21 108.729 105.21C106.946 105.21 105.367 104.952 103.99 104.436C102.614 103.904 101.481 103.13 100.589 102.114C99.6979 101.097 99.0958 99.8464 98.7831 98.3609L102.583 97.4226C102.943 98.83 103.631 99.8855 104.647 100.589C105.679 101.293 107.024 101.645 108.682 101.645C110.543 101.645 112.028 101.246 113.138 100.448C114.264 99.6353 114.827 98.6736 114.827 97.5634C114.827 96.6407 114.507 95.8745 113.866 95.2646C113.224 94.6391 112.247 94.17 110.934 93.8572L106.571 92.8251C104.162 92.2465 102.395 91.363 101.269 90.1746C100.144 88.9861 99.5806 87.4927 99.5806 85.6944C99.5806 84.2088 99.995 82.8952 100.824 81.7537C101.668 80.6121 102.818 79.7208 104.272 79.0796C105.726 78.4229 107.368 78.0945 109.198 78.0945C110.934 78.0945 112.411 78.3603 113.631 78.892C114.866 79.408 115.883 80.1352 116.68 81.0734C117.478 81.9961 118.08 83.0829 118.487 84.3339ZM135.607 78.4229V81.8475H122.049V78.4229H135.607ZM125.989 72.1834H129.977V97.1411C129.977 98.5016 130.259 99.5024 130.822 100.144C131.384 100.769 132.276 101.082 133.496 101.082C133.761 101.082 134.035 101.066 134.317 101.035C134.614 101.004 134.934 100.957 135.278 100.894L136.123 104.506C135.747 104.647 135.286 104.757 134.739 104.835C134.207 104.929 133.668 104.976 133.12 104.976C131.009 104.976 129.289 104.35 127.96 103.099C126.646 101.848 125.989 100.222 125.989 98.2201V72.1834ZM140.905 104.647V78.4229H144.752V82.4105H145.033C145.518 81.1125 146.386 80.0648 147.637 79.2673C148.903 78.4541 150.319 78.0476 151.882 78.0476C152.179 78.0476 152.547 78.0554 152.985 78.071C153.423 78.071 153.759 78.0788 153.993 78.0945V82.1759C153.853 82.1446 153.54 82.0977 153.055 82.0352C152.57 81.9726 152.054 81.9413 151.507 81.9413C150.24 81.9413 149.107 82.2072 148.106 82.7389C147.105 83.2705 146.315 83.9977 145.737 84.9203C145.174 85.8429 144.892 86.8985 144.892 88.0869V104.647H140.905ZM174.491 93.9511V78.4229H178.479V104.647H174.491V100.19H174.21C173.584 101.52 172.623 102.653 171.325 103.592C170.042 104.53 168.408 104.991 166.422 104.976C164.78 104.976 163.326 104.624 162.059 103.92C160.793 103.201 159.792 102.106 159.057 100.636C158.338 99.1662 157.978 97.3131 157.978 95.077V78.4229H161.965V94.8424C161.965 96.7346 162.505 98.2514 163.584 99.393C164.679 100.535 166.063 101.097 167.736 101.082C168.737 101.082 169.753 100.832 170.785 100.331C171.833 99.8152 172.709 99.0333 173.412 97.9856C174.132 96.9222 174.491 95.5774 174.491 93.9511ZM195.693 105.21C193.253 105.21 191.142 104.632 189.36 103.474C187.592 102.302 186.224 100.699 185.255 98.6658C184.301 96.6329 183.824 94.3107 183.824 91.6992C183.824 89.0252 184.316 86.6717 185.302 84.6388C186.287 82.5903 187.663 80.9874 189.43 79.8302C191.213 78.6731 193.285 78.0945 195.646 78.0945C197.491 78.0945 199.149 78.4385 200.619 79.1266C202.104 79.799 203.316 80.7529 204.254 81.9882C205.208 83.2236 205.795 84.6623 206.014 86.3042H201.979C201.776 85.5067 201.408 84.7561 200.877 84.0524C200.345 83.3487 199.641 82.7858 198.766 82.3635C197.906 81.9257 196.881 81.7068 195.693 81.7068C194.129 81.7068 192.761 82.1133 191.588 82.9265C190.415 83.7397 189.5 84.889 188.843 86.3746C188.187 87.8445 187.858 89.5725 187.858 91.5585C187.858 93.5757 188.179 95.3428 188.82 96.8597C189.461 98.3609 190.368 99.5259 191.541 100.355C192.729 101.183 194.113 101.598 195.693 101.598C197.272 101.598 198.625 101.191 199.751 100.378C200.877 99.5493 201.619 98.4234 201.979 97.0004H206.014C205.795 98.5485 205.232 99.9403 204.325 101.176C203.433 102.411 202.253 103.396 200.783 104.131C199.329 104.85 197.632 105.21 195.693 105.21ZM222.618 78.4229V81.8475H209.06V78.4229H222.618ZM213.001 72.1834H216.988V97.1411C216.988 98.5016 217.27 99.5024 217.833 100.144C218.396 100.769 219.287 101.082 220.507 101.082C220.772 101.082 221.046 101.066 221.328 101.035C221.625 101.004 221.945 100.957 222.289 100.894L223.134 104.506C222.758 104.647 222.297 104.757 221.75 104.835C221.218 104.929 220.679 104.976 220.131 104.976C218.02 104.976 216.3 104.35 214.971 103.099C213.657 101.848 213.001 100.222 213.001 98.2201V72.1834ZM244.429 93.9511V78.4229H248.417V104.647H244.429V100.19H244.148C243.522 101.52 242.56 102.653 241.262 103.592C239.98 104.53 238.346 104.991 236.36 104.976C234.718 104.976 233.264 104.624 231.997 103.92C230.731 103.201 229.73 102.106 228.995 100.636C228.275 99.1662 227.916 97.3131 227.916 95.077V78.4229H231.903V94.8424C231.903 96.7346 232.443 98.2514 233.522 99.393C234.616 100.535 236 101.097 237.674 101.082C238.674 101.082 239.691 100.832 240.723 100.331C241.771 99.8152 242.646 99.0333 243.35 97.9856C244.069 96.9222 244.429 95.5774 244.429 93.9511ZM255.028 104.647V78.4229H258.875V82.4105H259.157C259.641 81.1125 260.509 80.0648 261.76 79.2673C263.027 78.4541 264.442 78.0476 266.006 78.0476C266.303 78.0476 266.671 78.0554 267.108 78.071C267.546 78.071 267.882 78.0788 268.117 78.0945V82.1759C267.976 82.1446 267.664 82.0977 267.179 82.0352C266.694 81.9726 266.178 81.9413 265.631 81.9413C264.364 81.9413 263.23 82.2072 262.229 82.7389C261.229 83.2705 260.439 83.9977 259.86 84.9203C259.297 85.8429 259.016 86.8985 259.016 88.0869V104.647H255.028ZM283.079 105.21C280.561 105.21 278.38 104.647 276.535 103.521C274.705 102.395 273.298 100.824 272.313 98.8065C271.327 96.7736 270.835 94.4202 270.835 91.7461C270.835 89.0565 271.32 86.6874 272.289 84.6388C273.259 82.5903 274.619 80.9874 276.371 79.8302C278.138 78.6731 280.202 78.0945 282.563 78.0945C283.924 78.0945 285.276 78.3212 286.621 78.7747C287.966 79.2282 289.186 79.9632 290.28 80.9796C291.391 81.9961 292.274 83.3409 292.931 85.0141C293.588 86.6874 293.916 88.7437 293.916 91.1832V92.919H273.697V89.4474H291.735L289.882 90.761C289.882 89.0096 289.608 87.4536 289.061 86.0931C288.513 84.7327 287.692 83.6615 286.598 82.8796C285.519 82.0977 284.174 81.7068 282.563 81.7068C280.952 81.7068 279.568 82.1055 278.411 82.903C277.27 83.6849 276.394 84.7092 275.784 85.9758C275.174 87.2425 274.869 88.603 274.869 90.0573V92.356C274.869 94.342 275.213 96.023 275.901 97.3992C276.59 98.7753 277.551 99.823 278.787 100.542C280.022 101.246 281.453 101.598 283.079 101.598C284.127 101.598 285.081 101.449 285.941 101.152C286.801 100.839 287.544 100.378 288.169 99.7683C288.795 99.1428 289.272 98.3765 289.6 97.4695L293.494 98.5954C293.087 99.909 292.399 101.066 291.43 102.067C290.476 103.052 289.287 103.826 287.864 104.389C286.441 104.937 284.846 105.21 283.079 105.21Z" fill="url(#paint0_linear_513_1567)"/>
<defs>
<linearGradient id="paint0_linear_513_1567" x1="151.263" y1="-15.45" x2="151.263" y2="120.66" gradientUnits="userSpaceOnUse">
<stop stop-color="white"/>
<stop offset="1" stop-color="white" stop-opacity="0.7"/>
</linearGradient>
</defs>
</svg>
