<svg width="496" height="220" viewBox="0 0 496 220" fill="none" xmlns="http://www.w3.org/2000/svg">
<g clip-path="url(#clip0_513_1756)">
<path opacity="0.1" d="M352.865 217.125V145.413M352.865 145.413H282.294M352.865 145.413H423.437M352.865 145.413V73.7028M423.437 217.125V145.413M423.437 145.413H494.008M423.437 145.413V85.6548M494.008 217.125V145.413M494.008 145.413V73.7028M70.5802 217.125V145.413M70.5802 145.413H0.00889563M70.5802 145.413H141.151M70.5802 145.413V73.7028M141.151 217.125V145.413M141.151 145.413H211.722M141.151 145.413V94.8846M211.722 217.125V145.413M211.722 145.413H282.294M211.722 145.413V73.7028M261.113 217.125C282.286 217.125 282.286 195.612 282.286 195.612C282.286 195.746 282.286 195.88 282.286 196.006C282.541 217.125 303.448 217.125 303.448 217.125M70.5802 73.7028H119.971M70.5802 73.7028H0.00889563M282.294 145.413V196.006M282.294 145.413V73.7028M211.722 73.7028H162.314M211.722 73.7028H282.294M211.722 73.7028V1.99219M282.294 73.7028H352.865M282.294 73.7028V1.99219M352.865 73.7028V1.99219M352.865 73.7028L411.341 73.703M494.008 73.7028V17.9279C494.008 9.12686 486.873 1.99219 478.072 1.99219H423.437M494.008 73.7028H435.245M211.722 1.99219H141.151M211.722 1.99219H282.294M211.722 1.99219H211.714H141.142H70.5712H0M211.722 1.99219H282.286H282.294M282.294 1.99219H352.865M282.294 1.99219H352.857H352.865M352.865 1.99219H423.437M352.865 1.99219H423.427H423.437M423.437 1.99219C423.437 25.7597 423.437 40.6652 423.437 61.7512M119.971 73.7028C119.971 73.7028 141.142 73.703 141.142 95.2161C141.142 95.2161 141.142 95.0996 141.142 94.8844V94.8396C141.266 91.9891 142.792 73.7028 162.305 73.7028C162.305 73.7028 141.46 73.703 141.142 52.6828C141.142 52.6738 141.142 52.6647 141.142 52.6467C141.142 52.4943 141.142 52.342 141.142 52.1896C141.142 52.1896 141.143 73.7028 119.971 73.7028ZM0.00880199 1.99219H70.5802H141.151M141.151 1.99219L141.151 52.6469" stroke="url(#paint0_radial_513_1756)" stroke-width="0.995984" stroke-miterlimit="10"/>
<g opacity="0.2">
<path d="M423.293 43.8232C415.369 43.8232 407.768 46.9713 402.164 52.5748C396.561 58.1782 393.414 65.7783 393.414 73.7028C393.414 100.594 423.293 121.51 423.293 121.51C423.293 121.51 453.173 100.594 453.173 73.7028C453.173 65.7783 450.025 58.1782 444.422 52.5748C438.818 46.9713 431.217 43.8232 423.293 43.8232ZM423.293 85.6546C420.929 85.6546 418.618 84.9536 416.654 83.6403C414.688 82.327 413.156 80.4605 412.252 78.2765C411.347 76.0925 411.11 73.6894 411.57 71.3712C412.033 69.0527 413.17 66.9231 414.841 65.2516C416.512 63.58 418.644 62.4418 420.96 61.9806C423.279 61.5195 425.683 61.7561 427.867 62.6607C430.05 63.5652 431.918 65.0973 433.231 67.0627C434.544 69.0282 435.245 71.3389 435.245 73.7028C435.245 76.8726 433.986 79.9125 431.745 82.1539C429.502 84.3954 426.462 85.6546 423.293 85.6546Z" fill="url(#paint1_radial_513_1756)" fill-opacity="0.24"/>
<path d="M423.972 119.768C423.706 119.971 423.478 120.142 423.293 120.279C423.108 120.142 422.881 119.971 422.614 119.768C421.809 119.152 420.656 118.241 419.269 117.063C416.497 114.706 412.8 111.286 409.104 107.037C401.692 98.5124 394.41 86.7901 394.41 73.7029C394.41 66.0426 397.453 58.6958 402.87 53.2792C408.286 47.8625 415.632 44.8193 423.293 44.8193C430.954 44.8193 438.301 47.8625 443.717 53.2792C449.133 58.6958 452.177 66.0426 452.177 73.7029C452.177 86.7901 444.894 98.5124 437.482 107.037C433.787 111.286 430.09 114.706 427.317 117.063C425.931 118.241 424.777 119.152 423.972 119.768ZM416.1 84.4687C418.23 85.8913 420.732 86.6507 423.293 86.6507C426.727 86.6507 430.02 85.2866 432.448 82.8583C434.876 80.4301 436.241 77.1368 436.241 73.7029C436.241 71.142 435.482 68.6387 434.06 66.5095C432.636 64.3803 430.614 62.7208 428.247 61.7407C425.883 60.7607 423.279 60.5043 420.767 61.0039C418.256 61.5035 415.949 62.7367 414.138 64.5474C412.327 66.3581 411.094 68.6652 410.594 71.1769C410.094 73.6885 410.351 76.2918 411.331 78.6577C412.311 81.0237 413.971 83.0458 416.1 84.4687Z" stroke="white" stroke-opacity="0.06" stroke-width="0.995984"/>
</g>
<path d="M423.293 85.6546C429.894 85.6546 435.245 80.3036 435.245 73.7028C435.245 67.102 429.894 61.751 423.293 61.751C416.692 61.751 411.341 67.102 411.341 73.7028C411.341 80.3036 416.692 85.6546 423.293 85.6546Z" stroke="white" stroke-opacity="0.12" stroke-width="0.995984" stroke-linecap="round" stroke-linejoin="round"/>
<path d="M453.173 73.7028C453.173 100.594 423.293 121.51 423.293 121.51C423.293 121.51 393.414 100.594 393.414 73.7028C393.414 65.7783 396.561 58.1782 402.164 52.5748C407.768 46.9713 415.369 43.8232 423.293 43.8232C431.217 43.8232 438.818 46.9713 444.422 52.5748C450.025 58.1782 453.173 65.7783 453.173 73.7028Z" stroke="white" stroke-opacity="0.04" stroke-width="0.995984" stroke-linecap="round" stroke-linejoin="round"/>
</g>
<defs>
<radialGradient id="paint0_radial_513_1756" cx="0" cy="0" r="1" gradientUnits="userSpaceOnUse" gradientTransform="translate(439.546 -8.82664) rotate(171.04) scale(357.218 202.013)">
<stop stop-color="white"/>
<stop offset="1" stop-color="white" stop-opacity="0"/>
</radialGradient>
<radialGradient id="paint1_radial_513_1756" cx="0" cy="0" r="1" gradientUnits="userSpaceOnUse" gradientTransform="translate(423.293 126.49) rotate(90) scale(82.6667 63.9543)">
<stop stop-color="white"/>
<stop offset="1" stop-color="white" stop-opacity="0"/>
</radialGradient>
<clipPath id="clip0_513_1756">
<rect width="248" height="109.558" fill="white" transform="scale(2)"/>
</clipPath>
</defs>
</svg>
