<svg width="56" height="48" viewBox="0 0 56 48" fill="none" xmlns="http://www.w3.org/2000/svg">
<g clip-path="url(#clip0_513_1794)">
<path d="M28.1068 31.464C27.6888 30.566 28.5696 29.6978 29.4652 30.102C29.6592 30.1918 29.8086 30.3414 29.898 30.536C30.3012 31.434 29.4354 32.3022 28.5396 31.898C28.3456 31.8082 28.1964 31.6586 28.1068 31.464Z" fill="black"/>
<path d="M37.6001 27.0186C38.0031 26.1206 37.1373 25.2526 36.2417 25.6566C36.0477 25.7464 35.8983 25.8962 35.8089 26.0906C35.3909 26.9888 36.2715 27.8568 37.1673 27.4528C37.3613 27.363 37.5105 27.2132 37.6001 27.0186Z" fill="black"/>
<path d="M1.89809 5.464C2.30114 4.56594 1.43533 3.69782 0.539672 4.10194C0.345612 4.19174 0.196324 4.34142 0.106759 4.536C-0.311214 5.43406 0.569518 6.30218 1.46517 5.89806C1.65923 5.80826 1.80852 5.65858 1.89809 5.464Z" fill="black"/>
<path d="M53.8979 15.464C54.3021 14.5659 53.4339 13.6978 52.5359 14.1019C52.3413 14.1917 52.1917 14.3414 52.1017 14.536C51.6977 15.4341 52.5657 16.3022 53.4639 15.8981C53.6585 15.8083 53.8081 15.6586 53.8979 15.464Z" fill="black"/>
<path d="M26.1068 11.464C25.6888 10.5659 26.5696 9.69782 27.4652 10.1019C27.6592 10.1917 27.8086 10.3414 27.898 10.536C28.3012 11.4341 27.4354 12.3022 26.5396 11.8981C26.3456 11.8083 26.1964 11.6586 26.1068 11.464Z" fill="black"/>
<path d="M20.1068 35.464C19.6888 34.566 20.5696 33.6978 21.4652 34.102C21.6592 34.1918 21.8086 34.3414 21.898 34.536C22.3012 35.434 21.4354 36.3022 20.5396 35.898C20.3456 35.8082 20.1964 35.6586 20.1068 35.464Z" fill="black"/>
<path d="M30.1068 43.464C29.6888 42.566 30.5696 41.6978 31.4652 42.102C31.6592 42.1918 31.8086 42.3414 31.898 42.536C32.3012 43.434 31.4354 44.3022 30.5396 43.898C30.3456 43.8082 30.1964 43.6586 30.1068 43.464Z" fill="black"/>
</g>
<defs>
<clipPath id="clip0_513_1794">
<rect width="28" height="24" fill="white" transform="scale(2)"/>
</clipPath>
</defs>
</svg>
