<svg width="1185" height="253" viewBox="0 0 1185 253" fill="none" xmlns="http://www.w3.org/2000/svg">
<path d="M4.81744 0H84.0674V15.125H53.6924V89.625H35.1299V15.125H4.81744V0ZM128.187 23.6875C135.104 23.6875 140.333 26.0833 143.875 30.875C147.458 35.6667 149.25 42.4167 149.25 51.125V89.625H131.875V51.125C131.875 47.125 131 43.9792 129.25 41.6875C127.5 39.3542 125 38.1875 121.75 38.1875C117.625 38.1875 114.229 40.0417 111.562 43.75C108.896 47.4583 107.562 52.25 107.562 58.125V89.625H90.2499V0H107.562V36.75C109.312 32.625 111.979 29.4167 115.562 27.125C119.146 24.8333 123.354 23.6875 128.187 23.6875ZM202.182 68.875H221.12C219.203 75.875 215.37 81.4167 209.62 85.5C203.912 89.5417 196.953 91.5625 188.745 91.5625C178.453 91.5625 170.245 88.4583 164.12 82.25C157.995 76.0417 154.932 67.8333 154.932 57.625C154.932 47.4167 158.016 39.2083 164.182 33C170.391 26.7917 178.578 23.6875 188.745 23.6875C193.328 23.6875 197.557 24.3542 201.432 25.6875C205.307 26.9792 208.537 28.8125 211.12 31.1875C213.745 33.5208 215.849 36.2917 217.432 39.5C219.057 42.6667 219.891 46.1458 219.932 49.9375C220.016 53.6875 219.432 57.6667 218.182 61.875H173.245C173.87 66.5417 175.516 70.1667 178.182 72.75C180.849 75.2917 184.453 76.5625 188.995 76.5625C192.203 76.5625 194.932 75.9167 197.182 74.625C199.474 73.2917 201.141 71.375 202.182 68.875ZM188.62 38.1875C184.537 38.1875 181.203 39.2917 178.62 41.5C176.037 43.6667 174.328 46.8333 173.495 51H201.432C201.807 47.0833 200.87 43.9792 198.62 41.6875C196.412 39.3542 193.078 38.1875 188.62 38.1875ZM341.172 69.125L359.86 0H379.047L352.672 89.625H331.172L314.235 17.8125L297.86 89.625H276.235L249.86 0H269.11L287.922 69.375L303.36 0H325.547L341.172 69.125ZM438.355 82.25C432.23 88.4583 424.105 91.5625 413.98 91.5625C403.855 91.5625 395.709 88.4583 389.542 82.25C383.376 76.0417 380.292 67.8333 380.292 57.625C380.292 47.4167 383.376 39.2083 389.542 33C395.709 26.7917 403.855 23.6875 413.98 23.6875C424.105 23.6875 432.23 26.7917 438.355 33C444.522 39.2083 447.605 47.4167 447.605 57.625C447.605 67.8333 444.522 76.0417 438.355 82.25ZM402.605 71.375C405.48 74.8333 409.272 76.5625 413.98 76.5625C418.688 76.5625 422.459 74.8333 425.292 71.375C428.167 67.875 429.605 63.2917 429.605 57.625C429.605 51.875 428.167 47.2917 425.292 43.875C422.459 40.4167 418.688 38.6875 413.98 38.6875C409.272 38.6875 405.48 40.4167 402.605 43.875C399.772 47.2917 398.355 51.875 398.355 57.625C398.355 63.2917 399.772 67.875 402.605 71.375ZM489.475 23.6875C494.808 23.6875 499.079 25.5208 502.287 29.1875C505.496 32.8125 507.1 37.6042 507.1 43.5625C507.1 48.7708 505.954 53.6667 503.662 58.25H485.6C488.058 54.0833 489.287 50.3333 489.287 47C489.287 44.5 488.662 42.5208 487.412 41.0625C486.204 39.5625 484.537 38.8125 482.412 38.8125C479.246 38.8125 476.642 40.5833 474.6 44.125C472.558 47.6667 471.537 52.3333 471.537 58.125V89.625H454.225V25.625H471.537V36.5C473.204 32.4167 475.579 29.2708 478.662 27.0625C481.746 24.8125 485.35 23.6875 489.475 23.6875ZM530.282 89.625H513.032V0H530.282V89.625ZM587.84 34.3125V0H605.277V89.625H587.84V81.0625C585.423 84.4375 582.402 87.0417 578.777 88.875C575.194 90.6667 571.173 91.5625 566.715 91.5625C558.173 91.5625 551.173 88.4375 545.715 82.1875C540.257 75.9375 537.527 67.75 537.527 57.625C537.527 47.5 540.236 39.3125 545.652 33.0625C551.069 26.8125 558.048 23.6875 566.59 23.6875C575.673 23.6875 582.757 27.2292 587.84 34.3125ZM572.215 76.5625C577.173 76.5625 581.152 74.8333 584.152 71.375C587.194 67.875 588.715 63.2917 588.715 57.625C588.715 51.9583 587.194 47.3958 584.152 43.9375C581.152 40.4375 577.173 38.6875 572.215 38.6875C567.215 38.6875 563.194 40.4167 560.152 43.875C557.111 47.3333 555.59 51.9167 555.59 57.625C555.59 63.3333 557.111 67.9167 560.152 71.375C563.194 74.8333 567.215 76.5625 572.215 76.5625ZM631.772 29.75H620.21L618.085 0H633.96L631.772 29.75ZM673.83 91.5625C664.497 91.5625 657.122 89.4167 651.705 85.125C646.33 80.7917 643.767 74.9167 644.017 67.5H660.767C660.559 70.7083 661.622 73.25 663.955 75.125C666.33 76.9583 669.622 77.875 673.83 77.875C677.247 77.875 680.017 77.2917 682.142 76.125C684.309 74.9167 685.392 73.3542 685.392 71.4375C685.392 69.9792 684.642 68.7917 683.142 67.875C681.642 66.9167 679.705 66.1667 677.33 65.625C674.955 65.0833 672.309 64.5625 669.392 64.0625C666.517 63.5625 663.622 62.8958 660.705 62.0625C657.83 61.1875 655.205 60.125 652.83 58.875C650.455 57.5833 648.517 55.75 647.017 53.375C645.517 50.9583 644.767 48.1042 644.767 44.8125C644.767 38.3542 647.413 33.2292 652.705 29.4375C657.997 25.6042 664.788 23.6875 673.08 23.6875C678.997 23.6875 684.205 24.6458 688.705 26.5625C693.205 28.4375 696.601 31.25 698.892 35C701.226 38.7083 701.976 43 701.142 47.875H684.205C684.997 44.7917 684.33 42.2708 682.205 40.3125C680.08 38.3542 677.038 37.375 673.08 37.375C669.913 37.375 667.392 38.0208 665.517 39.3125C663.642 40.5625 662.705 42.1042 662.705 43.9375C662.705 45.4375 663.455 46.6667 664.955 47.625C666.455 48.5833 668.392 49.3333 670.767 49.875C673.142 50.375 675.767 50.875 678.642 51.375C681.517 51.8333 684.392 52.4792 687.267 53.3125C690.184 54.1458 692.83 55.1875 695.205 56.4375C697.58 57.6875 699.517 59.5208 701.017 61.9375C702.517 64.3125 703.267 67.1458 703.267 70.4375C703.267 76.9792 700.559 82.1458 695.142 85.9375C689.726 89.6875 682.622 91.5625 673.83 91.5625ZM759.007 0V74.5H805.32V89.625H740.57V0H759.007ZM839.877 23.6875C849.461 23.6875 856.773 26.3333 861.815 31.625C866.898 36.9167 869.44 44.1667 869.44 53.375V89.625H853.815V78.625C848.898 87.25 841.232 91.5625 830.815 91.5625C823.982 91.5625 818.565 89.7708 814.565 86.1875C810.607 82.6042 808.627 78 808.627 72.375C808.627 65.9167 811.252 60.8542 816.502 57.1875C821.794 53.4792 828.982 51.625 838.065 51.625C842.898 51.625 847.544 52.0833 852.002 53C851.877 43.2917 847.794 38.4375 839.752 38.4375C836.419 38.4375 833.898 39.2292 832.19 40.8125C830.523 42.3542 829.961 44.5417 830.502 47.375H813.127C812.044 42.625 812.607 38.4167 814.815 34.75C817.023 31.0833 820.315 28.3333 824.69 26.5C829.107 24.625 834.169 23.6875 839.877 23.6875ZM834.752 78.375C838.794 78.375 842.398 77.2083 845.565 74.875C848.732 72.5417 851.065 69.3958 852.565 65.4375C848.315 64.1458 844.044 63.5 839.752 63.5C830.627 63.5 826.065 66.1875 826.065 71.5625C826.065 73.7708 826.815 75.4583 828.315 76.625C829.857 77.7917 832.002 78.375 834.752 78.375ZM913.185 23.6875C918.518 23.6875 922.789 25.5208 925.997 29.1875C929.206 32.8125 930.81 37.6042 930.81 43.5625C930.81 48.7708 929.664 53.6667 927.372 58.25H909.31C911.768 54.0833 912.997 50.3333 912.997 47C912.997 44.5 912.372 42.5208 911.122 41.0625C909.914 39.5625 908.247 38.8125 906.122 38.8125C902.956 38.8125 900.352 40.5833 898.31 44.125C896.268 47.6667 895.247 52.3333 895.247 58.125V89.625H877.935V25.625H895.247V36.5C896.914 32.4167 899.289 29.2708 902.372 27.0625C905.456 24.8125 909.06 23.6875 913.185 23.6875ZM974.117 75.3125C980.742 76.3125 985.972 78.5625 989.805 82.0625C993.68 85.5208 995.617 89.875 995.617 95.125C995.617 101.625 992.68 106.917 986.805 111C980.93 115.083 973.617 117.125 964.867 117.125C956.284 117.125 948.992 115.062 942.992 110.938C936.992 106.854 933.326 101.333 931.992 94.375H951.305C951.847 96.875 953.305 98.7917 955.68 100.125C958.055 101.5 961.076 102.188 964.742 102.188C968.451 102.188 971.492 101.479 973.867 100.062C976.242 98.6875 977.43 96.75 977.43 94.25C977.43 91.6667 976.138 89.6042 973.555 88.0625C971.013 86.4792 967.263 85.6875 962.305 85.6875C956.263 85.6875 950.117 86.5208 943.867 88.1875V76.8125C954.034 75.6458 962.18 72.9167 968.305 68.625C965.388 69.3333 962.576 69.6875 959.867 69.6875C951.992 69.6875 945.638 67.6875 940.805 63.6875C936.013 59.6458 933.617 54.2917 933.617 47.625C933.617 40.5 936.347 34.7292 941.805 30.3125C947.305 25.8958 954.534 23.6875 963.492 23.6875C972.701 23.6875 979.992 26.0417 985.367 30.75C986.367 27.4167 986.242 23.0625 984.992 17.6875H997.867C998.576 21.3958 998.326 25.2083 997.117 29.125C995.909 33 993.992 36.2292 991.367 38.8125C992.576 41.6875 993.18 44.625 993.18 47.625C993.18 52.9167 991.513 58 988.18 62.875C984.888 67.75 980.201 71.8958 974.117 75.3125ZM954.93 41.25C952.763 42.9167 951.68 45.125 951.68 47.875C951.68 50.625 952.763 52.8542 954.93 54.5625C957.097 56.2708 959.951 57.125 963.492 57.125C966.992 57.125 969.805 56.2708 971.93 54.5625C974.055 52.8542 975.117 50.625 975.117 47.875C975.117 45.125 974.055 42.9167 971.93 41.25C969.805 39.5417 966.992 38.6875 963.492 38.6875C959.951 38.6875 957.097 39.5417 954.93 41.25ZM1047.99 68.875H1066.92C1065.01 75.875 1061.17 81.4167 1055.42 85.5C1049.72 89.5417 1042.76 91.5625 1034.55 91.5625C1024.26 91.5625 1016.05 88.4583 1009.92 82.25C1003.8 76.0417 1000.74 67.8333 1000.74 57.625C1000.74 47.4167 1003.82 39.2083 1009.99 33C1016.2 26.7917 1024.38 23.6875 1034.55 23.6875C1039.13 23.6875 1043.36 24.3542 1047.24 25.6875C1051.11 26.9792 1054.34 28.8125 1056.92 31.1875C1059.55 33.5208 1061.65 36.2917 1063.24 39.5C1064.86 42.6667 1065.7 46.1458 1065.74 49.9375C1065.82 53.6875 1065.24 57.6667 1063.99 61.875H1019.05C1019.67 66.5417 1021.32 70.1667 1023.99 72.75C1026.65 75.2917 1030.26 76.5625 1034.8 76.5625C1038.01 76.5625 1040.74 75.9167 1042.99 74.625C1045.28 73.2917 1046.95 71.375 1047.99 68.875ZM1034.42 38.1875C1030.34 38.1875 1027.01 39.2917 1024.42 41.5C1021.84 43.6667 1020.13 46.8333 1019.3 51H1047.24C1047.61 47.0833 1046.67 43.9792 1044.42 41.6875C1042.22 39.3542 1038.88 38.1875 1034.42 38.1875ZM1100.42 91.5625C1091.09 91.5625 1083.71 89.4167 1078.29 85.125C1072.92 80.7917 1070.36 74.9167 1070.61 67.5H1087.36C1087.15 70.7083 1088.21 73.25 1090.54 75.125C1092.92 76.9583 1096.21 77.875 1100.42 77.875C1103.84 77.875 1106.61 77.2917 1108.73 76.125C1110.9 74.9167 1111.98 73.3542 1111.98 71.4375C1111.98 69.9792 1111.23 68.7917 1109.73 67.875C1108.23 66.9167 1106.29 66.1667 1103.92 65.625C1101.54 65.0833 1098.9 64.5625 1095.98 64.0625C1093.11 63.5625 1090.21 62.8958 1087.29 62.0625C1084.42 61.1875 1081.79 60.125 1079.42 58.875C1077.04 57.5833 1075.11 55.75 1073.61 53.375C1072.11 50.9583 1071.36 48.1042 1071.36 44.8125C1071.36 38.3542 1074 33.2292 1079.29 29.4375C1084.59 25.6042 1091.38 23.6875 1099.67 23.6875C1105.59 23.6875 1110.79 24.6458 1115.29 26.5625C1119.79 28.4375 1123.19 31.25 1125.48 35C1127.82 38.7083 1128.57 43 1127.73 47.875H1110.79C1111.59 44.7917 1110.92 42.2708 1108.79 40.3125C1106.67 38.3542 1103.63 37.375 1099.67 37.375C1096.5 37.375 1093.98 38.0208 1092.11 39.3125C1090.23 40.5625 1089.29 42.1042 1089.29 43.9375C1089.29 45.4375 1090.04 46.6667 1091.54 47.625C1093.04 48.5833 1094.98 49.3333 1097.36 49.875C1099.73 50.375 1102.36 50.875 1105.23 51.375C1108.11 51.8333 1110.98 52.4792 1113.86 53.3125C1116.77 54.1458 1119.42 55.1875 1121.79 56.4375C1124.17 57.6875 1126.11 59.5208 1127.61 61.9375C1129.11 64.3125 1129.86 67.1458 1129.86 70.4375C1129.86 76.9792 1127.15 82.1458 1121.73 85.9375C1116.32 89.6875 1109.21 91.5625 1100.42 91.5625ZM1179.73 25.625V40.5H1161.42V68.375C1161.42 71 1161.96 73.0208 1163.04 74.4375C1164.17 75.8542 1166.23 76.5625 1169.23 76.5625C1172.06 76.5625 1175.12 75.625 1178.42 73.75V88.875C1175.17 90.6667 1170.98 91.5625 1165.85 91.5625C1163.06 91.5625 1160.52 91.2708 1158.23 90.6875C1155.98 90.1042 1154.1 89.3542 1152.6 88.4375C1151.1 87.5208 1149.79 86.3958 1148.67 85.0625C1147.58 83.6875 1146.75 82.3542 1146.17 81.0625C1145.58 79.7292 1145.1 78.25 1144.73 76.625C1144.39 75 1144.19 73.6042 1144.1 72.4375C1144.02 71.2292 1143.98 69.9167 1143.98 68.5V40.5H1131.29V25.625H1143.98V8.1875H1161.42V25.625H1179.73ZM46.0624 227.562C39.0624 227.562 32.6458 226.354 26.8124 223.938C21.0208 221.479 16.1666 218.146 12.2499 213.938C8.37494 209.688 5.35411 204.729 3.18744 199.062C1.06244 193.354 -6.10352e-05 187.229 -6.10352e-05 180.688C-6.10352e-05 171.729 1.91661 163.729 5.74994 156.688C9.58327 149.604 14.9583 144.083 21.8749 140.125C28.8333 136.125 36.7291 134.125 45.5624 134.125C53.9791 134.125 61.4166 135.854 67.8749 139.312C74.3333 142.771 79.1041 147.562 82.1874 153.688C85.3124 159.771 86.2499 166.521 84.9999 173.938H65.9374C67.1874 166.688 65.8958 160.854 62.0624 156.438C58.2291 151.979 52.8124 149.75 45.8124 149.75C37.8124 149.75 31.3541 152.708 26.4374 158.625C21.5208 164.5 19.0624 171.854 19.0624 180.688C19.0624 189.771 21.5624 197.25 26.5624 203.125C31.6041 209 38.1041 211.938 46.0624 211.938C52.3124 211.938 57.4999 210.125 61.6249 206.5C65.7916 202.833 68.3749 198.125 69.3749 192.375H88.9374C87.3958 203.125 82.7499 211.688 74.9999 218.062C67.2916 224.396 57.6458 227.562 46.0624 227.562ZM150.995 218.25C144.87 224.458 136.745 227.562 126.62 227.562C116.495 227.562 108.349 224.458 102.182 218.25C96.0158 212.042 92.9324 203.833 92.9324 193.625C92.9324 183.417 96.0158 175.208 102.182 169C108.349 162.792 116.495 159.688 126.62 159.688C136.745 159.688 144.87 162.792 150.995 169C157.162 175.208 160.245 183.417 160.245 193.625C160.245 203.833 157.162 212.042 150.995 218.25ZM115.245 207.375C118.12 210.833 121.912 212.562 126.62 212.562C131.328 212.562 135.099 210.833 137.932 207.375C140.807 203.875 142.245 199.292 142.245 193.625C142.245 187.875 140.807 183.292 137.932 179.875C135.099 176.417 131.328 174.688 126.62 174.688C121.912 174.688 118.12 176.417 115.245 179.875C112.412 183.292 110.995 187.875 110.995 193.625C110.995 199.292 112.412 203.875 115.245 207.375ZM243.802 159.688C250.386 159.688 255.407 161.979 258.865 166.562C262.323 171.146 264.052 177.604 264.052 185.938V225.625H246.615V186.688C246.615 183.021 245.844 180.104 244.302 177.938C242.761 175.771 240.552 174.688 237.677 174.688C233.761 174.688 230.552 176.458 228.052 180C225.594 183.5 224.365 188.125 224.365 193.875V225.625H206.927V186.688C206.927 182.812 206.136 179.771 204.552 177.562C202.969 175.312 200.698 174.188 197.74 174.188C193.823 174.188 190.573 176 187.99 179.625C185.448 183.25 184.177 188.083 184.177 194.125V225.625H166.865V161.625H184.177V173C185.886 168.958 188.532 165.729 192.115 163.312C195.698 160.896 199.823 159.688 204.49 159.688C209.032 159.688 212.969 160.917 216.302 163.375C219.677 165.792 222.011 169.042 223.302 173.125C225.052 168.958 227.698 165.688 231.24 163.312C234.823 160.896 239.011 159.688 243.802 159.688ZM311.422 159.688C320.047 159.688 327.11 162.812 332.61 169.062C338.11 175.312 340.86 183.5 340.86 193.625C340.86 203.75 338.11 211.938 332.61 218.188C327.152 224.438 320.131 227.562 311.547 227.562C302.047 227.562 294.797 223.708 289.797 216V251.25H272.485V161.625H289.797V171.25C294.797 163.542 302.006 159.688 311.422 159.688ZM306.297 212.688C311.256 212.688 315.256 210.938 318.297 207.438C321.381 203.896 322.922 199.292 322.922 193.625C322.922 187.958 321.381 183.396 318.297 179.938C315.256 176.438 311.256 174.688 306.297 174.688C301.297 174.688 297.297 176.417 294.297 179.875C291.297 183.333 289.797 187.917 289.797 193.625C289.797 199.333 291.297 203.938 294.297 207.438C297.297 210.938 301.297 212.688 306.297 212.688ZM387.667 193.875V161.625H405.105V225.625H387.667V215.125C385.459 219 382.584 221.979 379.042 224.062C375.542 226.146 371.605 227.188 367.23 227.188C363.813 227.188 360.813 226.5 358.23 225.125C355.647 223.75 353.626 222.062 352.167 220.062C350.751 218.021 349.605 215.604 348.73 212.812C347.855 209.979 347.272 207.375 346.98 205C346.73 202.625 346.605 200.146 346.605 197.562V161.625H363.98V197.562C363.98 207.646 367.272 212.688 373.855 212.688C378.022 212.688 381.355 210.958 383.855 207.5C386.397 204.042 387.667 199.5 387.667 193.875ZM458.037 161.625V176.5H439.725V204.375C439.725 207 440.267 209.021 441.35 210.438C442.475 211.854 444.537 212.562 447.537 212.562C450.371 212.562 453.433 211.625 456.725 209.75V224.875C453.475 226.667 449.287 227.562 444.162 227.562C441.371 227.562 438.829 227.271 436.537 226.688C434.287 226.104 432.412 225.354 430.912 224.438C429.412 223.521 428.1 222.396 426.975 221.062C425.892 219.688 425.058 218.354 424.475 217.062C423.892 215.729 423.412 214.25 423.037 212.625C422.704 211 422.496 209.604 422.412 208.438C422.329 207.229 422.287 205.917 422.287 204.5V176.5H409.6V161.625H422.287V144.188H439.725V161.625H458.037ZM508.032 204.875H526.97C525.053 211.875 521.22 217.417 515.47 221.5C509.762 225.542 502.803 227.562 494.595 227.562C484.303 227.562 476.095 224.458 469.97 218.25C463.845 212.042 460.782 203.833 460.782 193.625C460.782 183.417 463.866 175.208 470.032 169C476.241 162.792 484.428 159.688 494.595 159.688C499.178 159.688 503.407 160.354 507.282 161.688C511.157 162.979 514.387 164.812 516.97 167.188C519.595 169.521 521.699 172.292 523.282 175.5C524.907 178.667 525.741 182.146 525.782 185.938C525.866 189.688 525.282 193.667 524.032 197.875H479.095C479.72 202.542 481.366 206.167 484.032 208.75C486.699 211.292 490.303 212.562 494.845 212.562C498.053 212.562 500.782 211.917 503.032 210.625C505.324 209.292 506.991 207.375 508.032 204.875ZM494.47 174.188C490.387 174.188 487.053 175.292 484.47 177.5C481.887 179.667 480.178 182.833 479.345 187H507.282C507.657 183.083 506.72 179.979 504.47 177.688C502.262 175.354 498.928 174.188 494.47 174.188ZM583.022 185.938V210.5H629.335V225.625H564.585V136H628.022V151.125H583.022V170.812H621.397V185.938H583.022ZM668.955 227.562C658.83 227.562 650.684 224.458 644.517 218.25C638.351 212.042 635.267 203.833 635.267 193.625C635.267 183.375 638.351 175.167 644.517 169C650.726 162.792 658.997 159.688 669.33 159.688C674.497 159.688 679.184 160.5 683.392 162.125C687.642 163.75 691.101 166.062 693.767 169.062C696.476 172.021 698.288 175.583 699.205 179.75C700.163 183.917 699.934 188.542 698.517 193.625H681.392C682.601 187.667 682.101 183.021 679.892 179.688C677.726 176.354 674.205 174.688 669.33 174.688C664.413 174.688 660.517 176.396 657.642 179.812C654.767 183.188 653.33 187.75 653.33 193.5C653.33 199.292 654.767 203.917 657.642 207.375C660.559 210.833 664.413 212.562 669.205 212.562C672.372 212.562 675.101 211.729 677.392 210.062C679.726 208.354 681.517 206 682.767 203H701.705C699.913 210.333 696.163 216.271 690.455 220.812C684.788 225.312 677.622 227.562 668.955 227.562ZM763.2 218.25C757.075 224.458 748.95 227.562 738.825 227.562C728.7 227.562 720.554 224.458 714.387 218.25C708.221 212.042 705.137 203.833 705.137 193.625C705.137 183.417 708.221 175.208 714.387 169C720.554 162.792 728.7 159.688 738.825 159.688C748.95 159.688 757.075 162.792 763.2 169C769.367 175.208 772.45 183.417 772.45 193.625C772.45 203.833 769.367 212.042 763.2 218.25ZM727.45 207.375C730.325 210.833 734.117 212.562 738.825 212.562C743.533 212.562 747.304 210.833 750.137 207.375C753.012 203.875 754.45 199.292 754.45 193.625C754.45 187.875 753.012 183.292 750.137 179.875C747.304 176.417 743.533 174.688 738.825 174.688C734.117 174.688 730.325 176.417 727.45 179.875C724.617 183.292 723.2 187.875 723.2 193.625C723.2 199.292 724.617 203.875 727.45 207.375ZM805.945 227.562C796.612 227.562 789.237 225.417 783.82 221.125C778.445 216.792 775.882 210.917 776.132 203.5H792.882C792.674 206.708 793.737 209.25 796.07 211.125C798.445 212.958 801.737 213.875 805.945 213.875C809.362 213.875 812.132 213.292 814.257 212.125C816.424 210.917 817.507 209.354 817.507 207.438C817.507 205.979 816.757 204.792 815.257 203.875C813.757 202.917 811.82 202.167 809.445 201.625C807.07 201.083 804.424 200.562 801.507 200.062C798.632 199.562 795.737 198.896 792.82 198.062C789.945 197.188 787.32 196.125 784.945 194.875C782.57 193.583 780.632 191.75 779.132 189.375C777.632 186.958 776.882 184.104 776.882 180.812C776.882 174.354 779.528 169.229 784.82 165.438C790.112 161.604 796.903 159.688 805.195 159.688C811.112 159.688 816.32 160.646 820.82 162.562C825.32 164.438 828.716 167.25 831.007 171C833.341 174.708 834.091 179 833.257 183.875H816.32C817.112 180.792 816.445 178.271 814.32 176.312C812.195 174.354 809.153 173.375 805.195 173.375C802.028 173.375 799.507 174.021 797.632 175.312C795.757 176.562 794.82 178.104 794.82 179.938C794.82 181.438 795.57 182.667 797.07 183.625C798.57 184.583 800.507 185.333 802.882 185.875C805.257 186.375 807.882 186.875 810.757 187.375C813.632 187.833 816.507 188.479 819.382 189.312C822.299 190.146 824.945 191.188 827.32 192.438C829.695 193.688 831.632 195.521 833.132 197.938C834.632 200.312 835.382 203.146 835.382 206.438C835.382 212.979 832.674 218.146 827.257 221.938C821.841 225.688 814.737 227.562 805.945 227.562ZM869.627 208.062L883.565 161.625H901.752L878.44 230.375C877.732 232.417 877.023 234.229 876.315 235.812C875.648 237.396 874.544 239.333 873.002 241.625C871.461 243.917 869.773 245.812 867.94 247.312C866.107 248.854 863.69 250.188 860.69 251.312C857.732 252.438 854.482 253 850.94 253C846.857 253 843.273 252.375 840.19 251.125V236.375C843.732 237.583 846.669 238.188 849.002 238.188C854.836 238.188 859.148 235.146 861.94 229.062L835.94 161.625H854.377L869.627 208.062ZM932.185 227.562C922.852 227.562 915.477 225.417 910.06 221.125C904.685 216.792 902.122 210.917 902.372 203.5H919.122C918.914 206.708 919.977 209.25 922.31 211.125C924.685 212.958 927.977 213.875 932.185 213.875C935.602 213.875 938.372 213.292 940.497 212.125C942.664 210.917 943.747 209.354 943.747 207.438C943.747 205.979 942.997 204.792 941.497 203.875C939.997 202.917 938.06 202.167 935.685 201.625C933.31 201.083 930.664 200.562 927.747 200.062C924.872 199.562 921.977 198.896 919.06 198.062C916.185 197.188 913.56 196.125 911.185 194.875C908.81 193.583 906.872 191.75 905.372 189.375C903.872 186.958 903.122 184.104 903.122 180.812C903.122 174.354 905.768 169.229 911.06 165.438C916.352 161.604 923.143 159.688 931.435 159.688C937.352 159.688 942.56 160.646 947.06 162.562C951.56 164.438 954.956 167.25 957.247 171C959.581 174.708 960.331 179 959.497 183.875H942.56C943.352 180.792 942.685 178.271 940.56 176.312C938.435 174.354 935.393 173.375 931.435 173.375C928.268 173.375 925.747 174.021 923.872 175.312C921.997 176.562 921.06 178.104 921.06 179.938C921.06 181.438 921.81 182.667 923.31 183.625C924.81 184.583 926.747 185.333 929.122 185.875C931.497 186.375 934.122 186.875 936.997 187.375C939.872 187.833 942.747 188.479 945.622 189.312C948.539 190.146 951.185 191.188 953.56 192.438C955.935 193.688 957.872 195.521 959.372 197.938C960.872 200.312 961.622 203.146 961.622 206.438C961.622 212.979 958.914 218.146 953.497 221.938C948.081 225.688 940.977 227.562 932.185 227.562ZM1011.49 161.625V176.5H993.18V204.375C993.18 207 993.722 209.021 994.805 210.438C995.93 211.854 997.992 212.562 1000.99 212.562C1003.83 212.562 1006.89 211.625 1010.18 209.75V224.875C1006.93 226.667 1002.74 227.562 997.617 227.562C994.826 227.562 992.284 227.271 989.992 226.688C987.742 226.104 985.867 225.354 984.367 224.438C982.867 223.521 981.555 222.396 980.43 221.062C979.347 219.688 978.513 218.354 977.93 217.062C977.347 215.729 976.867 214.25 976.492 212.625C976.159 211 975.951 209.604 975.867 208.438C975.784 207.229 975.742 205.917 975.742 204.5V176.5H963.055V161.625H975.742V144.188H993.18V161.625H1011.49ZM1061.49 204.875H1080.42C1078.51 211.875 1074.67 217.417 1068.92 221.5C1063.22 225.542 1056.26 227.562 1048.05 227.562C1037.76 227.562 1029.55 224.458 1023.42 218.25C1017.3 212.042 1014.24 203.833 1014.24 193.625C1014.24 183.417 1017.32 175.208 1023.49 169C1029.7 162.792 1037.88 159.688 1048.05 159.688C1052.63 159.688 1056.86 160.354 1060.74 161.688C1064.61 162.979 1067.84 164.812 1070.42 167.188C1073.05 169.521 1075.15 172.292 1076.74 175.5C1078.36 178.667 1079.2 182.146 1079.24 185.938C1079.32 189.688 1078.74 193.667 1077.49 197.875H1032.55C1033.17 202.542 1034.82 206.167 1037.49 208.75C1040.15 211.292 1043.76 212.562 1048.3 212.562C1051.51 212.562 1054.24 211.917 1056.49 210.625C1058.78 209.292 1060.45 207.375 1061.49 204.875ZM1047.92 174.188C1043.84 174.188 1040.51 175.292 1037.92 177.5C1035.34 179.667 1033.63 182.833 1032.8 187H1060.74C1061.11 183.083 1060.17 179.979 1057.92 177.688C1055.72 175.354 1052.38 174.188 1047.92 174.188ZM1163.98 159.688C1170.57 159.688 1175.59 161.979 1179.04 166.562C1182.5 171.146 1184.23 177.604 1184.23 185.938V225.625H1166.79V186.688C1166.79 183.021 1166.02 180.104 1164.48 177.938C1162.94 175.771 1160.73 174.688 1157.86 174.688C1153.94 174.688 1150.73 176.458 1148.23 180C1145.77 183.5 1144.54 188.125 1144.54 193.875V225.625H1127.11V186.688C1127.11 182.812 1126.32 179.771 1124.73 177.562C1123.15 175.312 1120.88 174.188 1117.92 174.188C1114 174.188 1110.75 176 1108.17 179.625C1105.63 183.25 1104.36 188.083 1104.36 194.125V225.625H1087.04V161.625H1104.36V173C1106.07 168.958 1108.71 165.729 1112.29 163.312C1115.88 160.896 1120 159.688 1124.67 159.688C1129.21 159.688 1133.15 160.917 1136.48 163.375C1139.86 165.792 1142.19 169.042 1143.48 173.125C1145.23 168.958 1147.88 165.688 1151.42 163.312C1155 160.896 1159.19 159.688 1163.98 159.688Z" fill="url(#paint0_linear_513_1777)"/>
<defs>
<linearGradient id="paint0_linear_513_1777" x1="591.96" y1="-22.375" x2="591.96" y2="249.625" gradientUnits="userSpaceOnUse">
<stop offset="0.225" stop-color="white"/>
<stop offset="1" stop-color="white" stop-opacity="0.7"/>
</linearGradient>
</defs>
</svg>
