<svg width="36" height="25" viewBox="0 0 36 25" fill="none" xmlns="http://www.w3.org/2000/svg">
<path d="M18.7976 24.8698L11.4118 24.7348C9.02041 24.6878 6.62309 24.7816 4.27863 24.294C0.712146 23.5654 0.459465 19.993 0.195085 16.9964C-0.169215 12.7836 -0.0281746 8.49421 0.659285 4.31663C1.04739 1.97253 2.57473 0.573766 4.93669 0.421566C12.9101 -0.130834 20.9364 -0.0653745 28.8922 0.192345C29.7324 0.215965 30.5784 0.345105 31.4068 0.492085C35.4966 1.20895 35.5962 5.25731 35.8614 8.66521C36.1258 12.1084 36.014 15.5692 35.5088 18.9888C35.1034 21.8202 34.3276 24.1946 31.0542 24.4238C26.9528 24.7236 22.9456 24.965 18.8328 24.888C18.833 24.8698 18.8092 24.8698 18.7976 24.8698ZM14.4554 17.7016C17.5462 15.927 20.578 14.182 23.651 12.4192C20.5544 10.6448 17.5284 8.89981 14.4554 7.13703V17.7016Z" fill="#9B96B0"/>
</svg>
