<svg width="33" height="11" viewBox="0 0 33 11" fill="none" xmlns="http://www.w3.org/2000/svg">
<path d="M4.15812 9.49982H28.8419C30.355 9.49982 31.1116 9.49982 31.4014 9.00151C31.6913 8.5032 31.318 7.85277 30.5715 6.55189C30.3713 6.20298 30.1703 5.85445 29.9689 5.50617C28.8383 3.55071 28.2729 2.57297 27.3416 2.03647C26.4103 1.49997 25.275 1.49997 23.0044 1.49997H9.99558C7.72501 1.49997 6.58972 1.49997 5.65841 2.03647C4.7271 2.57297 4.16175 3.5507 3.03105 5.50617C2.82967 5.85445 2.62873 6.20298 2.4285 6.55189C1.68198 7.85277 1.30872 8.5032 1.59856 9.00151C1.8884 9.49982 2.64497 9.49982 4.15812 9.49982Z" stroke="url(#paint0_linear_0_5)" stroke-width="1.5" stroke-linejoin="round"/>
<defs>
<linearGradient id="paint0_linear_0_5" x1="16.0215" y1="1.32606" x2="16.0215" y2="9.67373" gradientUnits="userSpaceOnUse">
<stop stop-color="white"/>
<stop offset="1" stop-color="white" stop-opacity="0.6"/>
</linearGradient>
</defs>
</svg>
