<svg width="60" height="78" viewBox="0 0 60 78" fill="none" xmlns="http://www.w3.org/2000/svg">
<path d="M30.6784 76.2414C30.4105 76.4454 30.1825 76.6169 29.9965 76.7549C29.8105 76.6169 29.5826 76.4454 29.3146 76.2414C28.5067 75.6239 27.3488 74.709 25.957 73.5263C23.1733 71.1596 19.4618 67.7264 15.7522 63.4613C8.31111 54.9031 0.999991 43.1349 0.999991 29.9965C0.999991 22.3062 4.05561 14.9307 9.49296 9.49297C14.9303 4.05502 22.3054 0.999991 29.9965 0.999991C37.6876 0.999991 45.0627 4.05502 50.5001 9.49297C55.9374 14.9307 58.993 22.3062 58.993 29.9965C58.993 43.1349 51.6819 54.9031 44.2408 63.4613C40.5313 67.7264 36.8197 71.1596 34.036 73.5263C32.6442 74.709 31.4863 75.6239 30.6784 76.2414ZM22.7754 40.8044C24.9131 42.2327 27.4248 42.995 29.9965 42.995C33.4441 42.995 36.7497 41.6255 39.1874 39.1878C41.6251 36.7501 42.995 33.4439 42.995 29.9965C42.995 27.4256 42.2331 24.9125 40.8052 22.775C39.3754 20.6374 37.3456 18.9714 34.9699 17.9876C32.5962 17.0037 29.9825 16.7463 27.4608 17.2478C24.9391 17.7494 22.6234 18.9874 20.8056 20.8052C18.9879 22.623 17.75 24.9391 17.248 27.4606C16.7461 29.9821 17.0041 32.5956 17.9879 34.9707C18.9718 37.346 20.6377 39.376 22.7754 40.8044Z" stroke="white" stroke-opacity="0.06" stroke-width="0.995984"/>
</svg>
