<svg width="36" height="30" viewBox="0 0 36 30" fill="none" xmlns="http://www.w3.org/2000/svg">
<path d="M11.3216 29.2682C24.9072 29.2682 32.3366 18.009 32.3366 8.24546C32.3366 7.9257 32.3302 7.60742 32.3158 7.29044C33.7614 6.24404 35.009 4.94842 36 3.46434C34.6766 4.05292 33.2524 4.44908 31.7584 4.62768C33.2834 3.71298 34.454 2.26588 35.0064 0.54096C33.5566 1.40136 31.9704 2.0079 30.3164 2.33444C28.9686 0.89824 27.0496 0 24.925 0C20.8462 0 17.5386 3.30892 17.5386 7.38768C17.5386 7.96756 17.6034 8.53142 17.7302 9.07244C11.5915 8.76344 6.14818 5.8233 2.50522 1.35264C1.84908 2.48022 1.50398 3.76174 1.50512 5.06634C1.50512 7.6298 2.80902 9.89276 4.79196 11.2168C3.61902 11.1808 2.47184 10.864 1.44688 10.2926C1.44578 10.3236 1.44578 10.3538 1.44578 10.387C1.44578 13.9652 3.99168 16.9528 7.3713 17.6298C6.73656 17.8028 6.08158 17.8902 5.4237 17.8898C4.9486 17.8898 4.48558 17.843 4.03558 17.7566C4.9759 20.6924 7.70254 22.8288 10.9353 22.8884C8.40732 24.8706 5.22286 26.0512 1.7618 26.0512C1.17304 26.0516 0.58474 26.0176 0 25.9488C3.26882 28.0448 7.14988 29.2682 11.3216 29.2682Z" fill="#9B96B0"/>
</svg>
