<svg width="496" height="218" viewBox="0 0 496 218" fill="none" xmlns="http://www.w3.org/2000/svg">
<path opacity="0.1" d="M353.575 216.564V144.708M353.575 144.708H282.862M353.575 144.708H424.289M353.575 144.708V72.853M424.289 216.564V144.708M424.289 144.708H495.002M424.289 144.708V84.8291M495.002 216.564V144.708M495.002 144.708V72.853M70.7222 216.564V144.708M70.7222 144.708H0.00891353M70.7222 144.708H141.435M70.7222 144.708V72.853M141.435 216.564V144.708M141.435 144.708H212.148M141.435 144.708V94.0775M212.148 216.564V144.708M212.148 144.708H282.862M212.148 144.708V72.853M261.639 216.564C282.854 216.564 282.854 195.007 282.854 195.007C282.854 195.142 282.854 195.276 282.854 195.402C283.109 216.564 304.059 216.564 304.059 216.564M70.7222 72.853H120.213M70.7222 72.853H0.00891353M282.862 144.708V195.402M282.862 144.708V72.853M212.148 72.853H162.641M212.148 72.853H282.862M212.148 72.853V0.998098M282.862 72.853H353.575M282.862 72.853V0.998098M353.575 72.853V0.998098M353.575 72.853L412.169 72.8532M495.002 72.853V16.9659C495.002 8.14713 487.853 0.998098 479.034 0.998098H424.289M495.002 72.853H436.121M212.148 0.998098H141.435M212.148 0.998098H282.862M212.148 0.998098H212.14H141.426H70.7132H0M212.148 0.998098H282.854H282.862M282.862 0.998098H353.575M282.862 0.998098H353.567H353.575M353.575 0.998098H424.289M353.575 0.998098H424.279H424.289M424.289 0.998098C424.289 24.8135 424.289 39.749 424.289 60.8774M120.213 72.853C120.213 72.853 141.426 72.8532 141.426 94.4096C141.426 94.4096 141.426 94.2928 141.426 94.0773V94.0323C141.55 91.1761 143.08 72.853 162.632 72.853C162.632 72.853 141.745 72.8532 141.426 51.7907C141.426 51.7817 141.426 51.7725 141.426 51.7546C141.426 51.6019 141.426 51.4492 141.426 51.2965C141.426 51.2965 141.427 72.853 120.213 72.853ZM0.0088197 0.998098H70.7222H141.435M141.435 0.998098L141.435 51.7548" stroke="url(#paint0_radial_0_5)" stroke-width="0.995984" stroke-miterlimit="10"/>
<defs>
<radialGradient id="paint0_radial_0_5" cx="0" cy="0" r="1" gradientUnits="userSpaceOnUse" gradientTransform="translate(440.43 -9.8425) rotate(171.04) scale(357.936 202.42)">
<stop stop-color="white"/>
<stop offset="1" stop-color="white" stop-opacity="0"/>
</radialGradient>
</defs>
</svg>
