<svg width="36" height="28" viewBox="0 0 36 28" fill="none" xmlns="http://www.w3.org/2000/svg">
<path d="M30.4756 2.27462C28.181 1.2218 25.7204 0.446119 23.1478 0.00185874C23.101 -0.00670126 23.0542 0.0147181 23.03 0.0575781C22.7136 0.620398 22.363 1.35464 22.1176 1.93176C19.3506 1.5175 16.5978 1.5175 13.8875 1.93176C13.642 1.34182 13.2787 0.620398 12.9609 0.0575781C12.9367 0.0161581 12.8899 -0.00528126 12.8431 0.00185874C10.2719 0.444699 7.81133 1.22038 5.51539 2.27462C5.49551 2.2832 5.47847 2.2975 5.46717 2.31604C0.800073 9.2886 -0.478427 16.0898 0.148773 22.8066C0.151593 22.8394 0.170053 22.8708 0.195593 22.8908C3.27481 25.1522 6.25755 26.525 9.18491 27.435C9.23175 27.4492 9.28139 27.432 9.31121 27.3934C10.0037 26.4478 10.621 25.4508 11.1502 24.4022C11.1814 24.3408 11.1516 24.268 11.0878 24.2436C10.1087 23.8722 9.17639 23.4194 8.27959 22.9052C8.20865 22.8638 8.20297 22.7622 8.26823 22.7136C8.45695 22.5722 8.64571 22.4252 8.82593 22.2766C8.85853 22.2494 8.90395 22.2438 8.94229 22.2608C14.834 24.9508 21.2124 24.9508 27.0344 22.2608C27.0728 22.2422 27.1182 22.248 27.1522 22.2752C27.3324 22.4238 27.5212 22.5722 27.7114 22.7136C27.7766 22.7622 27.7724 22.8638 27.7014 22.9052C26.8046 23.4294 25.8722 23.8722 24.8918 24.2422C24.828 24.2664 24.7996 24.3408 24.8308 24.4022C25.3714 25.4492 25.9886 26.4464 26.6684 27.392C26.6968 27.432 26.7478 27.4492 26.7946 27.435C29.7362 26.525 32.719 25.1522 35.7982 22.8908C35.8252 22.8708 35.8422 22.8408 35.845 22.808C36.5956 15.0426 34.5878 8.29722 30.5224 2.31746C30.5124 2.2975 30.4954 2.2832 30.4756 2.27462ZM12.03 18.7168C10.2562 18.7168 8.79469 17.0882 8.79469 15.0884C8.79469 13.0884 10.2279 11.46 12.03 11.46C13.8463 11.46 15.2938 13.1026 15.2654 15.0884C15.2654 17.0882 13.8321 18.7168 12.03 18.7168ZM23.9922 18.7168C22.2184 18.7168 20.7568 17.0882 20.7568 15.0884C20.7568 13.0884 22.19 11.46 23.9922 11.46C25.8084 11.46 27.2558 13.1026 27.2274 15.0884C27.2274 17.0882 25.8084 18.7168 23.9922 18.7168Z" fill="#9B96B0"/>
</svg>
