<svg width="28" height="28" viewBox="0 0 28 28" fill="none" xmlns="http://www.w3.org/2000/svg">
<path d="M6.3561 27.9994V9.10712H0.3538V27.9994H6.3561ZM3.3562 6.52816C5.4489 6.52816 6.75174 5.07746 6.75174 3.26448C6.71256 1.41022 5.4489 0 3.396 0C1.3417 0 0 1.41022 0 3.26432C0 5.07728 1.30236 6.52798 3.31688 6.52798L3.3562 6.52816ZM9.67846 27.9994H15.6802V17.4502C15.6802 16.8864 15.7194 16.321 15.878 15.9182C16.3118 14.7896 17.2994 13.6214 18.9578 13.6214C21.1292 13.6214 21.9984 15.3536 21.9984 17.8936V27.9994H28V17.1672C28 11.3644 25.0392 8.6642 21.0904 8.6642C17.8528 8.6642 16.4308 10.5574 15.6408 11.8468H15.6808V9.10778H9.67878C9.75712 10.88 9.67846 27.9994 9.67846 27.9994Z" fill="#9B96B0"/>
</svg>
