<svg width="168" height="168" viewBox="0 0 168 168" fill="none" xmlns="http://www.w3.org/2000/svg">
<path d="M22 22L85 85M85 85L148 148M85 85L148 22M85 85L22 148M84 0V84M84 84V168M84 84H168M84 84H0M112 84C112 99.464 99.464 112 84 112C68.536 112 56 99.464 56 84C56 68.536 68.536 56 84 56C99.464 56 112 68.536 112 84ZM126 84C126 107.196 107.196 126 84 126C60.804 126 42 107.196 42 84C42 60.804 60.804 42 84 42C107.196 42 126 60.804 126 84ZM56 56H112V112H56V56ZM42 42H126V126H42V42ZM42 10H126V158H42V10ZM158 42V126H9.99996V42L158 42Z" stroke="#817B8E" stroke-opacity="0.16"/>
</svg>
