<svg width="60" height="78" viewBox="0 0 60 78" fill="none" xmlns="http://www.w3.org/2000/svg">
<path d="M30 0C22.044 0 14.412 3.1608 8.78601 8.7868C3.16001 14.4128 0 22.0436 0 30C0 57 30 78 30 78C30 78 60 57 60 30C60 22.0436 56.84 14.4128 51.214 8.7868C45.588 3.1608 37.956 0 30 0ZM30 42C27.626 42 25.306 41.2962 23.334 39.9776C21.36 38.659 19.822 36.785 18.914 34.5922C18.006 32.3994 17.768 29.9866 18.23 27.659C18.694 25.3312 19.836 23.193 21.514 21.5148C23.192 19.8364 25.332 18.6936 27.658 18.2306C29.986 17.7676 32.4 18.0052 34.592 18.9134C36.784 19.8216 38.66 21.3598 39.978 23.3332C41.296 25.3066 42 27.6266 42 30C42 33.1826 40.736 36.2348 38.486 38.4852C36.234 40.7358 33.182 42 30 42Z" fill="url(#paint0_radial_0_7)" fill-opacity="0.24"/>
<defs>
<radialGradient id="paint0_radial_0_7" cx="0" cy="0" r="1" gradientUnits="userSpaceOnUse" gradientTransform="translate(30 83) rotate(90) scale(83 64.2122)">
<stop stop-color="white"/>
<stop offset="1" stop-color="white" stop-opacity="0"/>
</radialGradient>
</defs>
</svg>
