<svg width="21" height="21" viewBox="0 0 21 21" fill="none" xmlns="http://www.w3.org/2000/svg">
<path d="M10.4963 1.5C7.64687 1.5 5.79927 3.31709 3.6142 3.97941C2.72573 4.24872 2.28149 4.38337 2.10171 4.57318C1.92193 4.763 1.86928 5.04037 1.76399 5.59512C0.6373 11.5314 3.09995 17.0196 8.97306 19.1557C9.6041 19.3852 9.91961 19.5 10.4995 19.5C11.0793 19.5 11.3948 19.3852 12.0258 19.1557C17.8985 17.0196 20.3588 11.5314 19.2318 5.59511C19.1265 5.04028 19.0738 4.76286 18.894 4.57304C18.7142 4.38322 18.27 4.24864 17.3815 3.97949C15.1956 3.31723 13.3459 1.5 10.4963 1.5Z" stroke="url(#paint0_linear_0_22)" stroke-width="1.5" stroke-linecap="round" stroke-linejoin="round"/>
<defs>
<linearGradient id="paint0_linear_0_22" x1="10.211" y1="1.1087" x2="10.211" y2="19.8913" gradientUnits="userSpaceOnUse">
<stop stop-color="white"/>
<stop offset="1" stop-color="white" stop-opacity="0.2"/>
</linearGradient>
</defs>
</svg>
