<svg width="32" height="32" viewBox="0 0 32 32" fill="none" xmlns="http://www.w3.org/2000/svg">
<path d="M16.0014 0C11.6561 0 11.1108 0.0189997 9.4041 0.0966597C7.70074 0.17466 6.53806 0.44434 5.52072 0.84C4.46838 1.24866 3.5757 1.79534 2.68636 2.685C1.79636 3.57434 1.24968 4.467 0.83968 5.519C0.443 6.53666 0.173 7.69966 0.0963402 9.40234C0.0200002 11.109 0 11.6547 0 16C0 20.3454 0.0193397 20.889 0.0966597 22.5956C0.175 24.299 0.44468 25.4616 0.84 26.479C1.24902 27.5314 1.79568 28.424 2.68536 29.3134C3.57438 30.2034 4.46704 30.7514 5.51872 31.16C6.53674 31.5556 7.69974 31.8254 9.40276 31.9034C11.1094 31.981 11.6545 32 15.9996 32C20.3452 32 20.8888 31.981 22.5956 31.9034C24.299 31.8254 25.463 31.5556 26.481 31.16C27.533 30.7514 28.4242 30.2034 29.3134 29.3134C30.2034 28.424 30.75 27.5314 31.16 26.4794C31.5534 25.4616 31.8234 24.2986 31.9034 22.596C31.98 20.8894 32 20.3454 32 16C32 11.6547 31.98 11.1093 31.9034 9.40266C31.8234 7.69934 31.5534 6.53666 31.16 5.51934C30.75 4.467 30.2034 3.57434 29.3134 2.685C28.4232 1.795 27.5332 1.24834 26.48 0.84C25.46 0.44434 24.2966 0.17466 22.5932 0.0966597C20.8866 0.0189997 20.3432 0 15.9964 0H16.0014ZM14.5662 2.88334C14.9922 2.88266 15.4674 2.88334 16.0014 2.88334C20.2736 2.88334 20.7798 2.89866 22.467 2.97534C24.027 3.04666 24.8736 3.30734 25.4376 3.52634C26.1842 3.81634 26.7166 4.163 27.2762 4.723C27.8362 5.283 28.183 5.81634 28.4736 6.563C28.6926 7.12634 28.9536 7.973 29.0246 9.533C29.1014 11.2197 29.118 11.7263 29.118 15.9964C29.118 20.2664 29.1014 20.773 29.0246 22.4596C28.9534 24.0196 28.6926 24.8664 28.4736 25.4296C28.1836 26.1764 27.8362 26.708 27.2762 27.2676C26.7162 27.8276 26.1846 28.1744 25.4376 28.4644C24.8742 28.6844 24.027 28.9444 22.467 29.0156C20.7802 29.0924 20.2736 29.109 16.0014 29.109C11.7291 29.109 11.2228 29.0924 9.5361 29.0156C7.97608 28.9436 7.1294 28.683 6.56506 28.464C5.8184 28.174 5.28506 27.8274 4.72504 27.2674C4.16504 26.7074 3.81838 26.1754 3.5277 25.4284C3.3087 24.865 3.0477 24.0184 2.9767 22.4584C2.90004 20.7716 2.8847 20.265 2.8847 15.9924C2.8847 11.7197 2.90004 11.2157 2.9767 9.529C3.04804 7.969 3.3087 7.12234 3.5277 6.55834C3.8177 5.81166 4.16504 5.27834 4.72504 4.71834C5.28506 4.15834 5.8184 3.81166 6.56506 3.521C7.12908 3.301 7.97608 3.041 9.5361 2.96934C11.0121 2.90266 11.5841 2.88266 14.5662 2.87934V2.88334ZM24.5422 5.54C23.4822 5.54 22.6222 6.399 22.6222 7.45934C22.6222 8.51934 23.4822 9.37934 24.5422 9.37934C25.6022 9.37934 26.4622 8.51934 26.4622 7.45934C26.4622 6.39934 25.6022 5.54 24.5422 5.54ZM16.0014 7.78334C11.4638 7.78334 7.78474 11.4623 7.78474 16C7.78474 20.5376 11.4638 24.215 16.0014 24.215C20.5392 24.215 24.217 20.5376 24.217 16C24.217 11.4623 20.539 7.78334 16.0014 7.78334ZM16.0014 10.6667C18.9468 10.6667 21.3348 13.0544 21.3348 16C21.3348 18.9454 18.9468 21.3334 16.0014 21.3334C13.0558 21.3334 10.6681 18.9454 10.6681 16C10.6681 13.0544 13.0558 10.6667 16.0014 10.6667Z" fill="#9B96B0"/>
</svg>
