<svg width="48" height="48" viewBox="0 0 48 48" fill="none" xmlns="http://www.w3.org/2000/svg">
<path d="M24.0014 8C19.6561 8 19.1108 8.019 17.4041 8.09666C15.7007 8.17466 14.5381 8.44434 13.5207 8.84C12.4684 9.24866 11.5757 9.79534 10.6864 10.685C9.79636 11.5743 9.24968 12.467 8.83968 13.519C8.443 14.5367 8.173 15.6997 8.09634 17.4023C8.02 19.109 8 19.6547 8 24C8 28.3454 8.01934 28.889 8.09666 30.5956C8.175 32.299 8.44468 33.4616 8.84 34.479C9.24902 35.5314 9.79568 36.424 10.6854 37.3134C11.5744 38.2034 12.467 38.7514 13.5187 39.16C14.5367 39.5556 15.6997 39.8254 17.4028 39.9034C19.1094 39.981 19.6545 40 23.9996 40C28.3452 40 28.8888 39.981 30.5956 39.9034C32.299 39.8254 33.463 39.5556 34.481 39.16C35.533 38.7514 36.4242 38.2034 37.3134 37.3134C38.2034 36.424 38.75 35.5314 39.16 34.4794C39.5534 33.4616 39.8234 32.2986 39.9034 30.596C39.98 28.8894 40 28.3454 40 24C40 19.6547 39.98 19.1093 39.9034 17.4027C39.8234 15.6993 39.5534 14.5367 39.16 13.5193C38.75 12.467 38.2034 11.5743 37.3134 10.685C36.4232 9.795 35.5332 9.24834 34.48 8.84C33.46 8.44434 32.2966 8.17466 30.5932 8.09666C28.8866 8.019 28.3432 8 23.9964 8H24.0014ZM22.5662 10.8833C22.9922 10.8827 23.4674 10.8833 24.0014 10.8833C28.2736 10.8833 28.7798 10.8987 30.467 10.9753C32.027 11.0467 32.8736 11.3073 33.4376 11.5263C34.1842 11.8163 34.7166 12.163 35.2762 12.723C35.8362 13.283 36.183 13.8163 36.4736 14.563C36.6926 15.1263 36.9536 15.973 37.0246 17.533C37.1014 19.2197 37.118 19.7263 37.118 23.9964C37.118 28.2664 37.1014 28.773 37.0246 30.4596C36.9534 32.0196 36.6926 32.8664 36.4736 33.4296C36.1836 34.1764 35.8362 34.708 35.2762 35.2676C34.7162 35.8276 34.1846 36.1744 33.4376 36.4644C32.8742 36.6844 32.027 36.9444 30.467 37.0156C28.7802 37.0924 28.2736 37.109 24.0014 37.109C19.7291 37.109 19.2228 37.0924 17.5361 37.0156C15.9761 36.9436 15.1294 36.683 14.5651 36.464C13.8184 36.174 13.2851 35.8274 12.725 35.2674C12.165 34.7074 11.8184 34.1754 11.5277 33.4284C11.3087 32.865 11.0477 32.0184 10.9767 30.4584C10.9 28.7716 10.8847 28.265 10.8847 23.9924C10.8847 19.7197 10.9 19.2157 10.9767 17.529C11.048 15.969 11.3087 15.1223 11.5277 14.5583C11.8177 13.8117 12.165 13.2783 12.725 12.7183C13.2851 12.1583 13.8184 11.8117 14.5651 11.521C15.1291 11.301 15.9761 11.041 17.5361 10.9693C19.0121 10.9027 19.5841 10.8827 22.5662 10.8793V10.8833ZM32.5422 13.54C31.4822 13.54 30.6222 14.399 30.6222 15.4593C30.6222 16.5193 31.4822 17.3793 32.5422 17.3793C33.6022 17.3793 34.4622 16.5193 34.4622 15.4593C34.4622 14.3993 33.6022 13.54 32.5422 13.54ZM24.0014 15.7833C19.4638 15.7833 15.7847 19.4623 15.7847 24C15.7847 28.5376 19.4638 32.215 24.0014 32.215C28.5392 32.215 32.217 28.5376 32.217 24C32.217 19.4623 28.539 15.7833 24.0014 15.7833ZM24.0014 18.6667C26.9468 18.6667 29.3348 21.0544 29.3348 24C29.3348 26.9454 26.9468 29.3334 24.0014 29.3334C21.0558 29.3334 18.6681 26.9454 18.6681 24C18.6681 21.0544 21.0558 18.6667 24.0014 18.6667Z" fill="#9B96B0"/>
</svg>
