<svg width="48" height="48" viewBox="0 0 48 48" fill="none" xmlns="http://www.w3.org/2000/svg">
<mask id="mask0_513_1738" style="mask-type:luminance" maskUnits="userSpaceOnUse" x="6" y="6" width="36" height="36">
<path d="M42 6H6V42H42V6Z" fill="white"/>
</mask>
<g mask="url(#mask0_513_1738)">
<path d="M16.3561 37.9994V19.1071H10.3538V37.9994H16.3561ZM13.3562 16.5282C15.4489 16.5282 16.7517 15.0775 16.7517 13.2645C16.7126 11.4102 15.4489 10 13.396 10C11.3417 10 10 11.4102 10 13.2643C10 15.0773 11.3024 16.528 13.3169 16.528L13.3562 16.5282ZM19.6785 37.9994H25.6802V27.4502C25.6802 26.8864 25.7194 26.321 25.878 25.9182C26.3118 24.7896 27.2994 23.6214 28.9578 23.6214C31.1292 23.6214 31.9984 25.3536 31.9984 27.8936V37.9994H38V27.1672C38 21.3644 35.0392 18.6642 31.0904 18.6642C27.8528 18.6642 26.4308 20.5574 25.6408 21.8468H25.6808V19.1078H19.6788C19.7571 20.88 19.6785 37.9994 19.6785 37.9994Z" fill="#9B96B0"/>
</g>
</svg>
