<svg width="520" height="110" viewBox="0 0 520 110" fill="none" xmlns="http://www.w3.org/2000/svg">
<path d="M77.9323 36.0051V1.07828H98.8884V4.82881H82.1516V17.018H97.2944V20.7686H82.1516V36.0051H77.9323ZM108.617 1.07828V36.0051H104.632V1.07828H108.617ZM126.035 36.5677C123.519 36.5677 121.339 36.0051 119.495 34.88C117.666 33.7548 116.26 32.1843 115.275 30.1683C114.291 28.1368 113.799 25.7849 113.799 23.1127C113.799 20.4248 114.283 18.0573 115.252 16.0101C116.221 13.9629 117.58 12.3611 119.331 11.2047C121.097 10.0483 123.159 9.4701 125.519 9.4701C126.879 9.4701 128.23 9.69669 129.574 10.1499C130.918 10.6031 132.137 11.3375 133.231 12.3533C134.341 13.3691 135.224 14.713 135.88 16.3851C136.536 18.0573 136.864 20.1122 136.864 22.5501V24.2847H116.658V20.8155H134.684L132.833 22.1281C132.833 20.3779 132.559 18.823 132.012 17.4634C131.465 16.1038 130.645 15.0334 129.551 14.252C128.473 13.4707 127.129 13.08 125.519 13.08C123.909 13.08 122.526 13.4785 121.37 14.2755C120.229 15.0568 119.354 16.0804 118.745 17.3462C118.135 18.612 117.83 19.9716 117.83 21.4249V23.7221C117.83 25.7068 118.174 27.3867 118.862 28.7619C119.549 30.1371 120.511 31.1841 121.745 31.903C122.98 32.6062 124.41 32.9578 126.035 32.9578C127.082 32.9578 128.035 32.8093 128.895 32.5124C129.754 32.1999 130.496 31.7389 131.121 31.1294C131.746 30.5043 132.223 29.7386 132.551 28.8322L136.442 29.9574C136.036 31.2701 135.349 32.4265 134.38 33.4266C133.426 34.4111 132.239 35.1847 130.817 35.7473C129.395 36.2942 127.801 36.5677 126.035 36.5677ZM144.952 9.79827L151.188 20.5342L157.47 9.79827H162.111L153.672 22.9251L162.111 36.0051H157.47L151.188 25.8318L144.952 36.0051H140.311L148.609 22.9251L140.311 9.79827H144.952ZM166.917 36.0051V9.79827H170.902V36.0051H166.917ZM168.933 5.43827C168.152 5.43827 167.48 5.17261 166.917 4.64128C166.355 4.10996 166.074 3.46924 166.074 2.71914C166.074 1.96903 166.355 1.32831 166.917 0.796988C167.48 0.265663 168.152 0 168.933 0C169.715 0 170.387 0.265663 170.949 0.796988C171.512 1.32831 171.793 1.96903 171.793 2.71914C171.793 3.46924 171.512 4.10996 170.949 4.64128C170.387 5.17261 169.715 5.43827 168.933 5.43827ZM189.304 36.5677C187.632 36.5677 186.288 36.2864 185.273 35.7238C184.257 35.1456 183.475 34.4971 182.928 33.7782C182.381 33.0438 181.96 32.4421 181.663 31.9733H181.194V36.0051H177.35V1.07828H181.334V13.9707H181.663C181.96 13.5175 182.374 12.9393 182.905 12.2361C183.436 11.5173 184.202 10.8765 185.202 10.314C186.202 9.75139 187.554 9.4701 189.257 9.4701C191.461 9.4701 193.399 10.0249 195.071 11.1344C196.743 12.2283 198.048 13.791 198.985 15.8226C199.939 17.8385 200.415 20.2216 200.415 22.972C200.415 25.738 199.946 28.1446 199.009 30.1918C198.071 32.2233 196.766 33.7939 195.094 34.9034C193.422 36.0129 191.492 36.5677 189.304 36.5677ZM188.789 32.9578C190.461 32.9578 191.859 32.5124 192.985 31.6217C194.11 30.7153 194.954 29.5042 195.516 27.9884C196.094 26.4725 196.383 24.7848 196.383 22.9251C196.383 21.0811 196.102 19.4168 195.54 17.9322C194.977 16.4476 194.133 15.2678 193.008 14.3927C191.898 13.5175 190.492 13.08 188.789 13.08C187.148 13.08 185.773 13.4941 184.663 14.3223C183.554 15.135 182.71 16.2836 182.131 17.7681C181.569 19.2371 181.288 20.9561 181.288 22.9251C181.288 24.8942 181.577 26.6366 182.155 28.1524C182.733 29.6526 183.577 30.8325 184.686 31.692C185.812 32.5359 187.179 32.9578 188.789 32.9578ZM209.582 1.07828V36.0051H205.597V1.07828H209.582ZM226.999 36.5677C224.483 36.5677 222.303 36.0051 220.459 34.88C218.631 33.7548 217.224 32.1843 216.24 30.1683C215.255 28.1368 214.763 25.7849 214.763 23.1127C214.763 20.4248 215.247 18.0573 216.216 16.0101C217.185 13.9629 218.545 12.3611 220.295 11.2047C222.061 10.0483 224.124 9.4701 226.483 9.4701C227.843 9.4701 229.195 9.69669 230.539 10.1499C231.883 10.6031 233.102 11.3375 234.195 12.3533C235.305 13.3691 236.188 14.713 236.844 16.3851C237.501 18.0573 237.829 20.1122 237.829 22.5501V24.2847H217.623V20.8155H235.649L233.797 22.1281C233.797 20.3779 233.523 18.823 232.976 17.4634C232.43 16.1038 231.609 15.0334 230.515 14.252C229.437 13.4707 228.093 13.08 226.483 13.08C224.874 13.08 223.491 13.4785 222.334 14.2755C221.194 15.0568 220.318 16.0804 219.709 17.3462C219.1 18.612 218.795 19.9716 218.795 21.4249V23.7221C218.795 25.7068 219.139 27.3867 219.826 28.7619C220.514 30.1371 221.475 31.1841 222.709 31.903C223.944 32.6062 225.374 32.9578 226.999 32.9578C228.046 32.9578 228.999 32.8093 229.859 32.5124C230.718 32.1999 231.461 31.7389 232.086 31.1294C232.711 30.5043 233.187 29.7386 233.516 28.8322L237.407 29.9574C237 31.2701 236.313 32.4265 235.344 33.4266C234.391 34.4111 233.203 35.1847 231.781 35.7473C230.359 36.2942 228.765 36.5677 226.999 36.5677ZM255.974 36.0051V1.07828H267.788C270.523 1.07828 272.757 1.57054 274.492 2.55505C276.242 3.53957 277.539 4.86788 278.383 6.53999C279.227 8.2121 279.649 10.0796 279.649 12.1423C279.649 14.1895 279.227 16.057 278.383 17.7447C277.555 19.4324 276.266 20.7764 274.516 21.7765C272.781 22.761 270.554 23.2533 267.835 23.2533H259.396V19.5028H267.694C269.569 19.5028 271.078 19.1824 272.218 18.5417C273.359 17.901 274.187 17.0259 274.703 15.9163C275.219 14.7912 275.477 13.5332 275.477 12.1423C275.477 10.7359 275.219 9.48572 274.703 8.39182C274.187 7.28228 273.351 6.41497 272.195 5.78988C271.054 5.14917 269.538 4.82881 267.647 4.82881H260.193V36.0051H255.974ZM292.66 36.6146C291.003 36.6146 289.495 36.302 288.136 35.6769C286.776 35.0362 285.698 34.1142 284.901 32.9109C284.104 31.7076 283.705 30.2543 283.705 28.5509C283.705 27.0507 284.002 25.8396 284.596 24.9176C285.19 23.98 285.979 23.2455 286.964 22.7142C287.964 22.1672 289.058 21.7609 290.245 21.4952C291.449 21.2296 292.66 21.0186 293.879 20.8623C295.473 20.6592 296.77 20.5029 297.77 20.3935C298.77 20.2841 299.504 20.0966 299.973 19.8309C300.442 19.5653 300.676 19.1121 300.676 18.4714V18.3307C300.676 17.2056 300.465 16.2523 300.044 15.4709C299.637 14.674 299.02 14.0723 298.192 13.666C297.363 13.2441 296.332 13.0331 295.097 13.0331C293.816 13.0331 292.722 13.2284 291.816 13.6191C290.925 14.0098 290.191 14.5099 289.612 15.1193C289.034 15.7132 288.597 16.3304 288.3 16.9712L284.455 15.6116C285.143 14.0176 286.057 12.7753 287.198 11.8845C288.354 10.9937 289.605 10.3687 290.948 10.0092C292.308 9.64981 293.644 9.4701 294.957 9.4701C295.801 9.4701 296.77 9.57167 297.864 9.77483C298.957 9.96235 300.02 10.3687 301.051 10.9937C302.098 11.6032 302.958 12.533 303.63 13.7832C304.318 15.0178 304.661 16.6742 304.661 18.7527V36.0051H300.723V32.4421H300.442C300.176 33.0047 299.723 33.6141 299.082 34.2705C298.442 34.9112 297.59 35.466 296.527 35.9348C295.48 36.388 294.191 36.6146 292.66 36.6146ZM293.269 33.0047C294.863 33.0047 296.207 32.6921 297.301 32.0671C298.41 31.442 299.247 30.6372 299.809 29.6526C300.387 28.6525 300.676 27.6133 300.676 26.535V22.8314C300.505 23.0345 300.129 23.222 299.551 23.3939C298.973 23.5502 298.309 23.6909 297.559 23.8159C296.809 23.9409 296.082 24.0503 295.379 24.1441C294.676 24.2222 294.113 24.2847 293.691 24.3316C292.644 24.4722 291.667 24.6988 290.761 25.0114C289.855 25.3083 289.12 25.7537 288.557 26.3475C288.011 26.9413 287.737 27.7539 287.737 28.7853C287.737 30.1762 288.253 31.231 289.284 31.9499C290.331 32.6531 291.66 33.0047 293.269 33.0047ZM313.64 45.9909C312.953 45.9909 312.343 45.9362 311.812 45.8268C311.28 45.7331 310.905 45.6315 310.687 45.5221L311.718 42.006L312.116 42.0997C313.46 42.4123 314.593 42.342 315.515 41.8888C316.437 41.4356 317.234 40.2713 317.906 38.3961L318.703 36.1458L309.046 9.79827H313.406L320.625 30.7075H320.907L328.127 9.79827H332.487L321.329 39.9901C320.829 41.3496 320.211 42.4748 319.477 43.3655C318.742 44.2563 317.891 44.9126 316.922 45.3346C315.953 45.7721 314.859 45.9909 313.64 45.9909ZM336.871 36.0051V9.79827H340.715V13.9239H341.09C341.637 12.5174 342.52 11.4235 343.739 10.6421C344.958 9.86078 346.419 9.4701 348.123 9.4701C349.842 9.4701 351.271 9.86078 352.412 10.6421C353.569 11.4235 354.467 12.5174 355.108 13.9239H355.389C356.077 12.5643 357.085 11.486 358.413 10.689C359.757 9.8764 361.359 9.4701 363.218 9.4701C364.781 9.4701 366.164 9.79827 367.367 10.4546C368.571 11.0953 369.516 12.0798 370.204 13.4082C370.891 14.7365 371.235 16.4242 371.235 18.4714V36.0051H367.203V18.4714C367.203 16.5336 366.672 15.1506 365.609 14.3223C364.547 13.4941 363.297 13.08 361.859 13.08C360.03 13.08 358.608 13.6426 357.593 14.7677C356.592 15.8773 356.092 17.2681 356.092 18.9402V36.0051H351.967V18.0494C351.967 16.5649 351.49 15.3694 350.537 14.463C349.584 13.541 348.341 13.08 346.81 13.08C345.763 13.08 344.786 13.3613 343.88 13.9239C342.973 14.4864 342.239 15.26 341.676 16.2445C341.129 17.229 340.856 18.362 340.856 19.6434V36.0051H336.871ZM388.653 36.5677C386.137 36.5677 383.957 36.0051 382.113 34.88C380.284 33.7548 378.878 32.1843 377.893 30.1683C376.909 28.1368 376.417 25.7849 376.417 23.1127C376.417 20.4248 376.901 18.0573 377.87 16.0101C378.839 13.9629 380.198 12.3611 381.949 11.2047C383.714 10.0483 385.777 9.4701 388.137 9.4701C389.497 9.4701 390.848 9.69669 392.192 10.1499C393.536 10.6031 394.755 11.3375 395.849 12.3533C396.959 13.3691 397.841 14.713 398.498 16.3851C399.154 18.0573 399.482 20.1122 399.482 22.5501V24.2847H379.276V20.8155H397.302L395.45 22.1281C395.45 20.3779 395.177 18.823 394.63 17.4634C394.083 16.1038 393.263 15.0334 392.169 14.252C391.09 13.4707 389.747 13.08 388.137 13.08C386.527 13.08 385.144 13.4785 383.988 14.2755C382.847 15.0568 381.972 16.0804 381.363 17.3462C380.753 18.612 380.448 19.9716 380.448 21.4249V23.7221C380.448 25.7068 380.792 27.3867 381.48 28.7619C382.167 30.1371 383.128 31.1841 384.363 31.903C385.598 32.6062 387.027 32.9578 388.653 32.9578C389.7 32.9578 390.653 32.8093 391.512 32.5124C392.372 32.1999 393.114 31.7389 393.739 31.1294C394.364 30.5043 394.841 29.7386 395.169 28.8322L399.06 29.9574C398.654 31.2701 397.966 32.4265 396.998 33.4266C396.044 34.4111 394.857 35.1847 393.435 35.7473C392.013 36.2942 390.419 36.5677 388.653 36.5677ZM408.555 20.2529V36.0051H404.57V9.79827H408.414V13.9239H408.789C409.399 12.5799 410.329 11.5016 411.579 10.689C412.829 9.8764 414.446 9.4701 416.431 9.4701C418.197 9.4701 419.744 9.82952 421.072 10.5484C422.401 11.2672 423.432 12.3611 424.166 13.8301C424.917 15.2834 425.292 17.1274 425.292 19.3621V36.0051H421.307V19.6434C421.307 17.5962 420.768 15.9945 419.689 14.838C418.611 13.666 417.142 13.08 415.282 13.08C414.001 13.08 412.852 13.3613 411.837 13.9239C410.821 14.4864 410.016 15.299 409.422 16.3617C408.844 17.4244 408.555 18.7214 408.555 20.2529ZM443.084 9.79827V13.2206H429.535V9.79827H443.084ZM433.473 3.56301H437.458V28.504C437.458 29.8636 437.74 30.8638 438.302 31.5045C438.865 32.1296 439.756 32.4421 440.974 32.4421C441.24 32.4421 441.514 32.4265 441.795 32.3952C442.092 32.364 442.412 32.3171 442.756 32.2546L443.6 35.8645C443.225 36.0051 442.764 36.1145 442.217 36.1926C441.686 36.2864 441.146 36.3333 440.599 36.3333C438.49 36.3333 436.771 35.7082 435.442 34.458C434.13 33.2078 433.473 31.5826 433.473 29.5823V3.56301ZM15.4475 100.483C12.4783 100.483 9.82949 99.7564 7.50103 98.303C5.17258 96.8497 3.33638 94.7869 1.99244 92.1146C0.664126 89.4268 -3.05219e-05 86.2466 -3.05219e-05 82.5742C-3.05219e-05 78.8862 0.664126 75.6983 1.99244 73.0104C3.33638 70.3225 5.17258 68.2519 7.50103 66.7986C9.82949 65.3452 12.4783 64.6186 15.4475 64.6186C18.4323 64.6186 21.0811 65.3452 23.3939 66.7986C25.7067 68.2519 27.5273 70.3225 28.8556 73.0104C30.1839 75.6983 30.8481 78.8862 30.8481 82.5742C30.8481 86.2466 30.1839 89.4268 28.8556 92.1146C27.5273 94.7869 25.7067 96.8497 23.3939 98.303C21.0811 99.7564 18.4323 100.483 15.4475 100.483ZM15.4475 96.545C17.5572 96.545 19.4637 96.0136 21.167 94.951C22.886 93.8727 24.2456 92.2944 25.2457 90.2159C26.2615 88.1375 26.7694 85.5903 26.7694 82.5742C26.7694 79.5425 26.2615 76.9875 25.2457 74.9091C24.2456 72.815 22.886 71.2367 21.167 70.174C19.4637 69.0958 17.5572 68.5566 15.4475 68.5566C13.3378 68.5566 11.4235 69.0958 9.70447 70.174C7.98548 71.2367 6.6181 72.815 5.60233 74.9091C4.58656 76.9875 4.07867 79.5425 4.07867 82.5742C4.07867 85.5903 4.58656 88.1375 5.60233 90.2159C6.6181 92.2944 7.98548 93.8727 9.70447 94.951C11.4235 96.0136 13.3378 96.545 15.4475 96.545ZM36.4514 109.812V73.8074H40.2957V77.9798H40.7645C41.0614 77.5266 41.4755 76.9484 42.0069 76.2452C42.5382 75.5264 43.3039 74.8856 44.3041 74.3231C45.3042 73.7605 46.656 73.4792 48.3593 73.4792C50.5628 73.4792 52.5006 74.034 54.1727 75.1435C55.8448 76.2374 57.1497 77.8001 58.0873 79.8317C59.0405 81.8476 59.5172 84.2307 59.5172 86.9811C59.5172 89.7471 59.0484 92.1537 58.1107 94.2009C57.1731 96.2324 55.8682 97.803 54.1961 98.9125C52.524 100.022 50.594 100.577 48.4062 100.577C46.7341 100.577 45.3902 100.295 44.3744 99.7329C43.3586 99.1547 42.5773 98.5062 42.0303 97.7873C41.4834 97.0528 41.0614 96.4512 40.7645 95.9824H40.4363V109.812H36.4514ZM47.8905 96.9669C49.5626 96.9669 50.9613 96.5215 52.0864 95.6308C53.2116 94.7244 54.0555 93.5133 54.618 91.9974C55.1962 90.4816 55.4854 88.7939 55.4854 86.9342C55.4854 85.0902 55.2041 83.4259 54.6415 81.9413C54.0789 80.4567 53.235 79.2769 52.1099 78.4018C51.0003 77.5266 49.5939 77.0891 47.8905 77.0891C46.2497 77.0891 44.8745 77.5032 43.7649 78.3314C42.6554 79.1441 41.8115 80.2927 41.2333 81.7772C40.6707 83.2462 40.3895 84.9652 40.3895 86.9342C40.3895 88.9033 40.6786 90.6457 41.2568 92.1615C41.835 93.6617 42.6788 94.8416 43.7884 95.7011C44.9135 96.545 46.2809 96.9669 47.8905 96.9669ZM76.0439 73.8074V77.2297H62.4951V73.8074H76.0439ZM66.4332 67.5721H70.4181V92.5131C70.4181 93.8727 70.6994 94.8729 71.262 95.5136C71.8245 96.1387 72.7153 96.4512 73.9342 96.4512C74.1999 96.4512 74.4734 96.4356 74.7547 96.4043C75.0516 96.3731 75.3719 96.3262 75.7157 96.2637L76.5596 99.8736C76.1845 100.014 75.7235 100.124 75.1766 100.202C74.6453 100.295 74.1061 100.342 73.5592 100.342C71.4495 100.342 69.7305 99.7173 68.4022 98.4671C67.0895 97.2169 66.4332 95.5917 66.4332 93.5914V67.5721ZM81.1784 100.014V73.8074H85.1633V100.014H81.1784ZM83.1943 69.4474C82.4129 69.4474 81.741 69.1817 81.1784 68.6504C80.6158 68.1191 80.3345 67.4783 80.3345 66.7282C80.3345 65.9781 80.6158 65.3374 81.1784 64.8061C81.741 64.2748 82.4129 64.0091 83.1943 64.0091C83.9757 64.0091 84.6476 64.2748 85.2102 64.8061C85.7728 65.3374 86.0541 65.9781 86.0541 66.7282C86.0541 67.4783 85.7728 68.1191 85.2102 68.6504C84.6476 69.1817 83.9757 69.4474 83.1943 69.4474ZM102.206 100.577C99.846 100.577 97.7754 100.014 95.9939 98.889C94.2124 97.7639 92.8216 96.1855 91.8215 94.154C90.8369 92.1225 90.3447 89.7628 90.3447 87.0749C90.3447 84.3401 90.8369 81.957 91.8215 79.9254C92.8216 77.8782 94.2124 76.2921 95.9939 75.1669C97.7754 74.0418 99.846 73.4792 102.206 73.4792C104.581 73.4792 106.659 74.0418 108.441 75.1669C110.223 76.2921 111.613 77.8782 112.613 79.9254C113.614 81.957 114.114 84.3401 114.114 87.0749C114.114 89.7628 113.614 92.1225 112.613 94.154C111.613 96.1855 110.223 97.7639 108.441 98.889C106.659 100.014 104.581 100.577 102.206 100.577ZM102.206 96.9669C104.018 96.9669 105.503 96.5059 106.659 95.5839C107.816 94.6619 108.675 93.4508 109.238 91.9506C109.801 90.4347 110.082 88.8095 110.082 87.0749C110.082 85.309 109.801 83.6681 109.238 82.1523C108.675 80.6365 107.816 79.4175 106.659 78.4955C105.503 77.5579 104.018 77.0891 102.206 77.0891C100.409 77.0891 98.9318 77.5579 97.7754 78.4955C96.6346 79.4175 95.783 80.6365 95.2204 82.1523C94.6578 83.6681 94.3765 85.309 94.3765 87.0749C94.3765 88.8095 94.6578 90.4347 95.2204 91.9506C95.783 93.4508 96.6346 94.6619 97.7754 95.5839C98.9318 96.5059 100.409 96.9669 102.206 96.9669ZM123.28 84.262V100.014H119.295V73.8074H123.139V77.9329H123.514C124.124 76.589 125.054 75.5107 126.304 74.6981C127.554 73.8855 129.171 73.4792 131.156 73.4792C132.922 73.4792 134.469 73.8386 135.797 74.5575C137.126 75.2763 138.157 76.3702 138.892 77.8392C139.642 79.2925 140.017 81.1365 140.017 83.3712V100.014H136.032V83.6525C136.032 81.6053 135.493 80.0036 134.414 78.8471C133.336 77.6751 131.867 77.0891 130.007 77.0891C128.726 77.0891 127.577 77.3704 126.562 77.9329C125.546 78.4955 124.741 79.3081 124.147 80.3708C123.569 81.4334 123.28 82.7305 123.28 84.262ZM164.982 79.7144L161.372 80.699C161.028 79.8082 160.435 78.9643 159.591 78.1674C158.763 77.3547 157.465 76.9484 155.7 76.9484C154.106 76.9484 152.777 77.3235 151.715 78.0736C150.652 78.8081 150.121 79.7301 150.121 80.8396C150.121 81.8397 150.48 82.6367 151.199 83.2306C151.933 83.8244 153.074 84.3089 154.621 84.6839L158.512 85.6215C160.841 86.1841 162.576 87.0514 163.716 88.2235C164.873 89.3955 165.451 90.8879 165.451 92.7007C165.451 94.2009 165.021 95.5448 164.162 96.7325C163.302 97.9202 162.107 98.8578 160.575 99.5454C159.044 100.233 157.262 100.577 155.231 100.577C153.449 100.577 151.871 100.319 150.496 99.8032C149.121 99.2719 147.988 98.4984 147.097 97.4826C146.206 96.4668 145.604 95.2167 145.292 93.7321L149.089 92.7944C149.449 94.2009 150.136 95.2557 151.152 95.9589C152.183 96.6622 153.527 97.0138 155.184 97.0138C157.044 97.0138 158.528 96.6153 159.638 95.8183C160.763 95.0057 161.325 94.0446 161.325 92.9351C161.325 92.0131 161.005 91.2473 160.364 90.6379C159.724 90.0128 158.747 89.544 157.434 89.2314L153.074 88.2C150.668 87.6218 148.902 86.7389 147.777 85.5512C146.651 84.3635 146.089 82.8711 146.089 81.074C146.089 79.5894 146.503 78.2767 147.331 77.136C148.175 75.9952 149.324 75.1044 150.777 74.4637C152.23 73.8074 153.871 73.4792 155.7 73.4792C157.434 73.4792 158.911 73.7449 160.13 74.2762C161.364 74.7919 162.38 75.5185 163.177 76.4562C163.974 77.3782 164.576 78.4643 164.982 79.7144ZM193.722 100.577C191.363 100.577 189.292 100.014 187.511 98.889C185.729 97.7639 184.338 96.1855 183.338 94.154C182.354 92.1225 181.861 89.7628 181.861 87.0749C181.861 84.3401 182.354 81.957 183.338 79.9254C184.338 77.8782 185.729 76.2921 187.511 75.1669C189.292 74.0418 191.363 73.4792 193.722 73.4792C196.098 73.4792 198.176 74.0418 199.958 75.1669C201.739 76.2921 203.13 77.8782 204.13 79.9254C205.13 81.957 205.63 84.3401 205.63 87.0749C205.63 89.7628 205.13 92.1225 204.13 94.154C203.13 96.1855 201.739 97.7639 199.958 98.889C198.176 100.014 196.098 100.577 193.722 100.577ZM193.722 96.9669C195.535 96.9669 197.02 96.5059 198.176 95.5839C199.333 94.6619 200.192 93.4508 200.755 91.9506C201.317 90.4347 201.599 88.8095 201.599 87.0749C201.599 85.309 201.317 83.6681 200.755 82.1523C200.192 80.6365 199.333 79.4175 198.176 78.4955C197.02 77.5579 195.535 77.0891 193.722 77.0891C191.925 77.0891 190.449 77.5579 189.292 78.4955C188.151 79.4175 187.3 80.6365 186.737 82.1523C186.175 83.6681 185.893 85.309 185.893 87.0749C185.893 88.8095 186.175 90.4347 186.737 91.9506C187.3 93.4508 188.151 94.6619 189.292 95.5839C190.449 96.5059 191.925 96.9669 193.722 96.9669ZM222.438 73.8074V77.2297H208.327V73.8074H222.438ZM212.546 100.014V70.1975C212.546 68.6973 212.898 67.4471 213.601 66.4469C214.32 65.4468 215.242 64.6967 216.367 64.1966C217.492 63.6965 218.672 63.4465 219.907 63.4465C220.907 63.4465 221.72 63.5325 222.345 63.7044C222.985 63.8606 223.454 64.0091 223.751 64.1497L222.579 67.619C222.376 67.5408 222.095 67.4549 221.735 67.3611C221.391 67.2517 220.923 67.197 220.329 67.197C219 67.197 218.032 67.5408 217.422 68.2284C216.828 68.9004 216.531 69.8849 216.531 71.182V100.014H212.546ZM254.273 100.483C251.304 100.483 248.655 99.7564 246.327 98.303C243.998 96.8497 242.17 94.7869 240.841 92.1146C239.513 89.4268 238.849 86.2466 238.849 82.5742C238.849 78.8862 239.513 75.6983 240.841 73.0104C242.17 70.3225 243.998 68.2519 246.327 66.7986C248.655 65.3452 251.304 64.6186 254.273 64.6186C256.023 64.6186 257.672 64.8764 259.219 65.3921C260.782 65.9078 262.188 66.6579 263.438 67.6424C264.689 68.6113 265.728 69.8068 266.556 71.2289C267.4 72.6353 267.978 74.2293 268.291 76.0108H264.071C263.821 74.7919 263.384 73.7214 262.759 72.7994C262.149 71.8774 261.399 71.1038 260.508 70.4788C259.633 69.838 258.664 69.3614 257.602 69.0489C256.539 68.7207 255.429 68.5566 254.273 68.5566C252.163 68.5566 250.249 69.0958 248.53 70.174C246.811 71.2367 245.444 72.815 244.428 74.9091C243.428 76.9875 242.928 79.5425 242.928 82.5742C242.928 85.5903 243.428 88.1375 244.428 90.2159C245.444 92.2944 246.811 93.8727 248.53 94.951C250.249 96.0136 252.163 96.545 254.273 96.545C255.429 96.545 256.539 96.3887 257.602 96.0761C258.664 95.748 259.633 95.2713 260.508 94.6463C261.399 94.0055 262.149 93.2242 262.759 92.3022C263.384 91.3802 263.821 90.3097 264.071 89.0908H268.291C267.978 90.8879 267.4 92.4897 266.556 93.8962C265.728 95.3026 264.689 96.4981 263.438 97.4826C262.188 98.4515 260.782 99.1938 259.219 99.7095C257.672 100.225 256.023 100.483 254.273 100.483ZM273.659 100.014V73.8074H277.504V77.7923H277.785C278.27 76.4952 279.137 75.4482 280.387 74.6512C281.653 73.8386 283.067 73.4323 284.63 73.4323C284.927 73.4323 285.294 73.4401 285.732 73.4557C286.169 73.4557 286.505 73.4636 286.739 73.4792V77.5579C286.599 77.5266 286.286 77.4798 285.802 77.4172C285.317 77.3547 284.802 77.3235 284.255 77.3235C282.989 77.3235 281.856 77.5891 280.856 78.1205C279.856 78.6518 279.066 79.3785 278.488 80.3005C277.926 81.2225 277.644 82.2773 277.644 83.465V100.014H273.659ZM293.093 110C292.405 110 291.796 109.945 291.264 109.836C290.733 109.742 290.358 109.641 290.139 109.531L291.171 106.015L291.569 106.109C292.913 106.421 294.046 106.351 294.968 105.898C295.89 105.445 296.687 104.28 297.359 102.405L298.156 100.155L288.498 73.8074H292.858L300.078 94.7166H300.359L307.579 73.8074H311.939L300.781 103.999C300.281 105.359 299.664 106.484 298.93 107.375C298.195 108.265 297.343 108.922 296.375 109.344C295.406 109.781 294.312 110 293.093 110ZM316.324 109.812V73.8074H320.168V77.9798H320.637C320.934 77.5266 321.348 76.9484 321.879 76.2452C322.41 75.5264 323.176 74.8856 324.176 74.3231C325.176 73.7605 326.528 73.4792 328.232 73.4792C330.435 73.4792 332.373 74.034 334.045 75.1435C335.717 76.2374 337.022 77.8001 337.96 79.8317C338.913 81.8476 339.389 84.2307 339.389 86.9811C339.389 89.7471 338.921 92.1537 337.983 94.2009C337.045 96.2324 335.74 97.803 334.068 98.9125C332.396 100.022 330.466 100.577 328.278 100.577C326.606 100.577 325.262 100.295 324.247 99.7329C323.231 99.1547 322.45 98.5062 321.903 97.7873C321.356 97.0528 320.934 96.4512 320.637 95.9824H320.309V109.812H316.324ZM327.763 96.9669C329.435 96.9669 330.834 96.5215 331.959 95.6308C333.084 94.7244 333.928 93.5133 334.49 91.9974C335.068 90.4816 335.358 88.7939 335.358 86.9342C335.358 85.0902 335.076 83.4259 334.514 81.9413C333.951 80.4567 333.107 79.2769 331.982 78.4018C330.873 77.5266 329.466 77.0891 327.763 77.0891C326.122 77.0891 324.747 77.5032 323.637 78.3314C322.528 79.1441 321.684 80.2927 321.106 81.7772C320.543 83.2462 320.262 84.9652 320.262 86.9342C320.262 88.9033 320.551 90.6457 321.129 92.1615C321.707 93.6617 322.551 94.8416 323.661 95.7011C324.786 96.545 326.153 96.9669 327.763 96.9669ZM355.916 73.8074V77.2297H342.367V73.8074H355.916ZM346.305 67.5721H350.29V92.5131C350.29 93.8727 350.572 94.8729 351.134 95.5136C351.697 96.1387 352.588 96.4512 353.806 96.4512C354.072 96.4512 354.346 96.4356 354.627 96.4043C354.924 96.3731 355.244 96.3262 355.588 96.2637L356.432 99.8736C356.057 100.014 355.596 100.124 355.049 100.202C354.518 100.295 353.978 100.342 353.431 100.342C351.322 100.342 349.603 99.7173 348.274 98.4671C346.962 97.2169 346.305 95.5917 346.305 93.5914V67.5721ZM371.646 100.577C369.286 100.577 367.216 100.014 365.434 98.889C363.653 97.7639 362.262 96.1855 361.262 94.154C360.277 92.1225 359.785 89.7628 359.785 87.0749C359.785 84.3401 360.277 81.957 361.262 79.9254C362.262 77.8782 363.653 76.2921 365.434 75.1669C367.216 74.0418 369.286 73.4792 371.646 73.4792C374.021 73.4792 376.1 74.0418 377.881 75.1669C379.663 76.2921 381.053 77.8782 382.054 79.9254C383.054 81.957 383.554 84.3401 383.554 87.0749C383.554 89.7628 383.054 92.1225 382.054 94.154C381.053 96.1855 379.663 97.7639 377.881 98.889C376.1 100.014 374.021 100.577 371.646 100.577ZM371.646 96.9669C373.459 96.9669 374.943 96.5059 376.1 95.5839C377.256 94.6619 378.116 93.4508 378.678 91.9506C379.241 90.4347 379.522 88.8095 379.522 87.0749C379.522 85.309 379.241 83.6681 378.678 82.1523C378.116 80.6365 377.256 79.4175 376.1 78.4955C374.943 77.5579 373.459 77.0891 371.646 77.0891C369.849 77.0891 368.372 77.5579 367.216 78.4955C366.075 79.4175 365.223 80.6365 364.661 82.1523C364.098 83.6681 363.817 85.309 363.817 87.0749C363.817 88.8095 364.098 90.4347 364.661 91.9506C365.223 93.4508 366.075 94.6619 367.216 95.5839C368.372 96.5059 369.849 96.9669 371.646 96.9669ZM411.122 100.483C408.841 100.483 406.864 100.069 405.192 99.2407C403.535 98.3968 402.254 97.2404 401.347 95.7714C400.457 94.3025 400.011 92.6225 400.011 90.7316C400.011 89.2783 400.332 87.9969 400.972 86.8873C401.613 85.7778 402.48 84.7464 403.574 83.7932C404.684 82.8243 405.934 81.8241 407.325 80.7927L412.388 77.0422C413.341 76.339 414.115 75.6357 414.709 74.9325C415.318 74.2137 415.623 73.2604 415.623 72.0727C415.623 71.182 415.232 70.3225 414.451 69.4942C413.685 68.6504 412.669 68.2284 411.403 68.2284C410.528 68.2284 409.747 68.455 409.059 68.9082C408.387 69.3458 407.856 69.9084 407.465 70.596C407.09 71.2836 406.903 71.9946 406.903 72.7291C406.903 73.5417 407.129 74.3699 407.583 75.2138C408.036 76.0577 408.614 76.9172 409.317 77.7923C410.02 78.6518 410.747 79.5425 411.497 80.4646L427.531 100.014H422.655L409.434 84.0744C408.215 82.5899 407.106 81.2459 406.106 80.0426C405.106 78.8237 404.309 77.636 403.715 76.4796C403.121 75.3076 402.824 74.0418 402.824 72.6822C402.824 71.1038 403.176 69.7208 403.879 68.5332C404.582 67.3455 405.567 66.4235 406.832 65.7672C408.098 65.0952 409.575 64.7592 411.263 64.7592C413.029 64.7592 414.544 65.0952 415.81 65.7672C417.076 66.4391 418.045 67.3299 418.717 68.4394C419.405 69.5489 419.748 70.7601 419.748 72.0727C419.748 73.7292 419.326 75.1669 418.483 76.3859C417.654 77.6048 416.529 78.7456 415.107 79.8082L408.122 85.0121C406.559 86.1685 405.504 87.2936 404.957 88.3876C404.41 89.4815 404.137 90.2628 404.137 90.7316C404.137 91.8255 404.418 92.8491 404.981 93.8024C405.559 94.74 406.364 95.5058 407.395 96.0996C408.426 96.6778 409.638 96.9669 411.028 96.9669C412.341 96.9669 413.622 96.6856 414.873 96.123C416.123 95.5448 417.248 94.7244 418.248 93.6617C419.264 92.5991 420.069 91.3177 420.663 89.8174C421.272 88.3016 421.577 86.6061 421.577 84.7308H425.468C425.468 87.0436 425.202 88.9345 424.671 90.4035C424.14 91.8724 423.538 93.021 422.866 93.8493C422.194 94.6775 421.655 95.2948 421.249 95.7011C421.108 95.873 420.975 96.0449 420.85 96.2168C420.741 96.3887 420.623 96.5606 420.498 96.7325C419.358 97.9983 417.928 98.9437 416.209 99.5688C414.49 100.178 412.794 100.483 411.122 100.483ZM444.082 100.014V65.0874H465.038V68.8379H448.301V81.0271H463.444V84.7777H448.301V100.014H444.082ZM470.782 100.014V73.8074H474.767V100.014H470.782ZM472.798 69.4474C472.016 69.4474 471.344 69.1817 470.782 68.6504C470.219 68.1191 469.938 67.4783 469.938 66.7282C469.938 65.9781 470.219 65.3374 470.782 64.8061C471.344 64.2748 472.016 64.0091 472.798 64.0091C473.579 64.0091 474.251 64.2748 474.814 64.8061C475.376 65.3374 475.658 65.9781 475.658 66.7282C475.658 67.4783 475.376 68.1191 474.814 68.6504C474.251 69.1817 473.579 69.4474 472.798 69.4474ZM488.903 100.624C487.246 100.624 485.738 100.311 484.378 99.686C483.019 99.0453 481.941 98.1233 481.144 96.92C480.347 95.7167 479.948 94.2634 479.948 92.56C479.948 91.0598 480.245 89.8487 480.839 88.9267C481.433 87.9891 482.222 87.2546 483.206 86.7233C484.207 86.1763 485.3 85.77 486.488 85.5043C487.691 85.2387 488.903 85.0277 490.121 84.8714C491.715 84.6683 493.013 84.512 494.013 84.4026C495.013 84.2932 495.747 84.1057 496.216 83.84C496.685 83.5744 496.919 83.1212 496.919 82.4805V82.3398C496.919 81.2147 496.708 80.2614 496.286 79.48C495.88 78.6831 495.263 78.0814 494.435 77.6751C493.606 77.2532 492.575 77.0422 491.34 77.0422C490.059 77.0422 488.965 77.2375 488.059 77.6282C487.168 78.0189 486.433 78.519 485.855 79.1284C485.277 79.7223 484.839 80.3395 484.543 80.9803L480.698 79.6207C481.386 78.0267 482.3 76.7843 483.441 75.8936C484.597 75.0028 485.847 74.3778 487.191 74.0183C488.551 73.6589 489.887 73.4792 491.2 73.4792C492.044 73.4792 493.013 73.5808 494.106 73.7839C495.2 73.9714 496.263 74.3778 497.294 75.0028C498.341 75.6123 499.201 76.5421 499.873 77.7923C500.56 79.0269 500.904 80.6833 500.904 82.7618V100.014H496.966V96.4512H496.685C496.419 97.0138 495.966 97.6232 495.325 98.2796C494.685 98.9203 493.833 99.4751 492.77 99.9439C491.723 100.397 490.434 100.624 488.903 100.624ZM489.512 97.0138C491.106 97.0138 492.45 96.7012 493.544 96.0761C494.653 95.4511 495.489 94.6463 496.052 93.6617C496.63 92.6616 496.919 91.6224 496.919 90.5441V86.8405C496.747 87.0436 496.372 87.2311 495.794 87.403C495.216 87.5593 494.552 87.7 493.802 87.825C493.052 87.95 492.325 88.0594 491.622 88.1531C490.918 88.2313 490.356 88.2938 489.934 88.3407C488.887 88.4813 487.91 88.7079 487.004 89.0205C486.097 89.3174 485.363 89.7628 484.8 90.3566C484.253 90.9504 483.98 91.763 483.98 92.7944C483.98 94.1853 484.496 95.2401 485.527 95.9589C486.574 96.6622 487.902 97.0138 489.512 97.0138ZM518.697 73.8074V77.2297H505.148V73.8074H518.697ZM509.086 67.5721H513.071V92.5131C513.071 93.8727 513.352 94.8729 513.915 95.5136C514.477 96.1387 515.368 96.4512 516.587 96.4512C516.853 96.4512 517.126 96.4356 517.408 96.4043C517.704 96.3731 518.025 96.3262 518.369 96.2637L519.212 99.8736C518.837 100.014 518.376 100.124 517.829 100.202C517.298 100.295 516.759 100.342 516.212 100.342C514.102 100.342 512.383 99.7173 511.055 98.4671C509.742 97.2169 509.086 95.5917 509.086 93.5914V67.5721Z" fill="url(#paint0_linear_513_1582)"/>
<defs>
<linearGradient id="paint0_linear_513_1582" x1="259.114" y1="-10.0014" x2="259.114" y2="112.016" gradientUnits="userSpaceOnUse">
<stop stop-color="white"/>
<stop offset="1" stop-color="white" stop-opacity="0.7"/>
</linearGradient>
</defs>
</svg>
