<svg width="162" height="68" viewBox="0 0 162 68" fill="none" xmlns="http://www.w3.org/2000/svg">
<rect width="162" height="68" rx="17" fill="url(#paint0_radial_513_2066)"/>
<rect x="0.5" y="0.5" width="161" height="67" rx="16.5" stroke="white" stroke-opacity="0.1"/>
<path d="M47.4005 38.873C47.4005 38.4629 47.3367 38.0983 47.2091 37.7793C47.0907 37.4603 46.8765 37.1686 46.5666 36.9043C46.2567 36.64 45.8192 36.3848 45.2541 36.1387C44.6981 35.8835 43.9871 35.6237 43.1213 35.3594C42.1733 35.0677 41.2983 34.7441 40.4963 34.3887C39.7033 34.0241 39.0106 33.6048 38.4181 33.1309C37.8257 32.6478 37.3654 32.0964 37.0373 31.4766C36.7091 30.8477 36.5451 30.123 36.5451 29.3027C36.5451 28.4915 36.7137 27.7533 37.0509 27.0879C37.3973 26.4225 37.8849 25.8483 38.5138 25.3652C39.1518 24.873 39.9038 24.4948 40.7697 24.2305C41.6356 23.957 42.5926 23.8203 43.6408 23.8203C45.1173 23.8203 46.3888 24.0938 47.4552 24.6406C48.5308 25.1875 49.3556 25.9212 49.9298 26.8418C50.5132 27.7624 50.8048 28.7786 50.8048 29.8906H47.4005C47.4005 29.2344 47.2593 28.6556 46.9767 28.1543C46.7033 27.6439 46.284 27.2428 45.7189 26.9512C45.1629 26.6595 44.4565 26.5137 43.5998 26.5137C42.7886 26.5137 42.1141 26.6367 41.5763 26.8828C41.0386 27.1289 40.6375 27.4616 40.3732 27.8809C40.1089 28.3001 39.9767 28.7741 39.9767 29.3027C39.9767 29.6764 40.0633 30.0182 40.2365 30.3281C40.4097 30.6289 40.674 30.9115 41.0295 31.1758C41.3849 31.431 41.8315 31.6725 42.3693 31.9004C42.9071 32.1283 43.5405 32.347 44.2697 32.5566C45.3726 32.8848 46.3341 33.2493 47.1545 33.6504C47.9748 34.0423 48.6584 34.4889 49.2052 34.9902C49.7521 35.4915 50.1623 36.0612 50.4357 36.6992C50.7091 37.3281 50.8459 38.0436 50.8459 38.8457C50.8459 39.6842 50.6772 40.4408 50.34 41.1152C50.0028 41.7806 49.5197 42.3503 48.8908 42.8242C48.271 43.2891 47.5236 43.6491 46.6486 43.9043C45.7827 44.1504 44.8166 44.2734 43.7502 44.2734C42.7931 44.2734 41.8498 44.1458 40.9201 43.8906C39.9995 43.6354 39.161 43.248 38.4045 42.7285C37.6479 42.1999 37.0464 41.5436 36.5998 40.7598C36.1532 39.9668 35.9298 39.0417 35.9298 37.9844H39.3615C39.3615 38.6315 39.4709 39.1829 39.6896 39.6387C39.9175 40.0944 40.2319 40.4681 40.633 40.7598C41.034 41.0423 41.4989 41.252 42.0275 41.3887C42.5653 41.5254 43.1395 41.5938 43.7502 41.5938C44.5522 41.5938 45.2222 41.4798 45.7599 41.252C46.3068 41.0241 46.717 40.7051 46.9904 40.2949C47.2638 39.8848 47.4005 39.4108 47.4005 38.873ZM56.8002 29.207V44H53.4916V29.207H56.8002ZM53.2729 25.3242C53.2729 24.8229 53.437 24.4082 53.7651 24.0801C54.1023 23.7428 54.5672 23.5742 55.1596 23.5742C55.7429 23.5742 56.2032 23.7428 56.5405 24.0801C56.8777 24.4082 57.0463 24.8229 57.0463 25.3242C57.0463 25.8164 56.8777 26.2266 56.5405 26.5547C56.2032 26.8828 55.7429 27.0469 55.1596 27.0469C54.5672 27.0469 54.1023 26.8828 53.7651 26.5547C53.437 26.2266 53.2729 25.8164 53.2729 25.3242ZM69.6042 29.207H72.5984V43.5898C72.5984 44.9206 72.3158 46.0508 71.7507 46.9805C71.1856 47.9102 70.3972 48.6165 69.3855 49.0996C68.3738 49.5918 67.2025 49.8379 65.8718 49.8379C65.3067 49.8379 64.6778 49.7559 63.9851 49.5918C63.3015 49.4277 62.6361 49.1634 61.989 48.7988C61.351 48.4434 60.8178 47.974 60.3894 47.3906L61.9343 45.4492C62.4629 46.0781 63.0463 46.5384 63.6843 46.8301C64.3223 47.1217 64.9922 47.2676 65.6941 47.2676C66.4506 47.2676 67.0932 47.1263 67.6218 46.8438C68.1596 46.5703 68.5743 46.1647 68.8659 45.627C69.1576 45.0892 69.3034 44.4329 69.3034 43.6582V32.5566L69.6042 29.207ZM59.5554 36.7676V36.4805C59.5554 35.3594 59.6921 34.3385 59.9655 33.418C60.239 32.4883 60.6309 31.6908 61.1413 31.0254C61.6517 30.3509 62.2715 29.8359 63.0007 29.4805C63.7299 29.1159 64.5547 28.9336 65.4753 28.9336C66.4323 28.9336 67.2481 29.1068 67.9226 29.4531C68.6062 29.7995 69.1758 30.2962 69.6316 30.9434C70.0873 31.5814 70.4428 32.347 70.698 33.2402C70.9623 34.1243 71.1583 35.1087 71.2859 36.1934V37.1094C71.1674 38.1667 70.9668 39.1328 70.6843 40.0078C70.4017 40.8828 70.028 41.6393 69.5632 42.2773C69.0984 42.9154 68.5241 43.4076 67.8405 43.7539C67.1661 44.1003 66.3685 44.2734 65.448 44.2734C64.5456 44.2734 63.7299 44.0866 63.0007 43.7129C62.2807 43.3392 61.6609 42.8151 61.1413 42.1406C60.6309 41.4661 60.239 40.6732 59.9655 39.7617C59.6921 38.8411 59.5554 37.8431 59.5554 36.7676ZM62.8503 36.4805V36.7676C62.8503 37.4421 62.9141 38.071 63.0417 38.6543C63.1784 39.2376 63.3835 39.7526 63.657 40.1992C63.9395 40.6367 64.295 40.9831 64.7234 41.2383C65.1609 41.4844 65.6758 41.6074 66.2683 41.6074C67.043 41.6074 67.6765 41.4434 68.1687 41.1152C68.67 40.7871 69.0528 40.3451 69.3171 39.7891C69.5905 39.224 69.782 38.5951 69.8913 37.9023V35.4277C69.8366 34.89 69.7227 34.3887 69.5495 33.9238C69.3855 33.459 69.1622 33.0534 68.8796 32.707C68.5971 32.3516 68.2416 32.0781 67.8132 31.8867C67.3848 31.6862 66.879 31.5859 66.2956 31.5859C65.7032 31.5859 65.1882 31.7135 64.7507 31.9688C64.3132 32.224 63.9532 32.5749 63.6706 33.0215C63.3972 33.4681 63.1921 33.9876 63.0554 34.5801C62.9187 35.1725 62.8503 35.806 62.8503 36.4805ZM79.0039 32.3652V44H75.709V29.207H78.8125L79.0039 32.3652ZM78.416 36.0566L77.3496 36.043C77.3587 34.9948 77.5046 34.0332 77.7871 33.1582C78.0788 32.2832 78.4798 31.5312 78.9902 30.9023C79.5098 30.2734 80.1296 29.7904 80.8496 29.4531C81.5697 29.1068 82.3717 28.9336 83.2559 28.9336C83.9668 28.9336 84.6094 29.0339 85.1836 29.2344C85.7669 29.4258 86.2637 29.7402 86.6738 30.1777C87.0931 30.6152 87.4121 31.1849 87.6309 31.8867C87.8496 32.5794 87.959 33.4316 87.959 34.4434V44H84.6504V34.4297C84.6504 33.7188 84.5456 33.1582 84.3359 32.748C84.1354 32.3288 83.8392 32.0326 83.4473 31.8594C83.0645 31.6771 82.5859 31.5859 82.0117 31.5859C81.4466 31.5859 80.9408 31.7044 80.4941 31.9414C80.0475 32.1784 79.6693 32.502 79.3594 32.9121C79.0586 33.3223 78.8262 33.7962 78.6621 34.334C78.498 34.8717 78.416 35.446 78.416 36.0566ZM106.635 40.5137V29.207H109.944V44H106.827L106.635 40.5137ZM107.1 37.4375L108.208 37.4102C108.208 38.4036 108.098 39.3197 107.879 40.1582C107.661 40.9876 107.323 41.7122 106.868 42.332C106.412 42.9427 105.829 43.4212 105.118 43.7676C104.407 44.1048 103.555 44.2734 102.561 44.2734C101.841 44.2734 101.18 44.1686 100.579 43.959C99.9771 43.7493 99.4576 43.4258 99.0201 42.9883C98.5917 42.5508 98.259 41.9811 98.022 41.2793C97.7851 40.5775 97.6666 39.7389 97.6666 38.7637V29.207H100.961V38.791C100.961 39.3288 101.025 39.7799 101.153 40.1445C101.28 40.5 101.454 40.7871 101.672 41.0059C101.891 41.2246 102.146 41.3796 102.438 41.4707C102.73 41.5618 103.04 41.6074 103.368 41.6074C104.307 41.6074 105.045 41.4251 105.583 41.0605C106.129 40.6868 106.517 40.1855 106.745 39.5566C106.982 38.9277 107.1 38.2214 107.1 37.4375ZM116.349 32.0508V49.6875H113.055V29.207H116.09L116.349 32.0508ZM125.988 36.4668V36.7539C125.988 37.8294 125.861 38.8275 125.605 39.748C125.359 40.6595 124.99 41.457 124.498 42.1406C124.015 42.8151 123.418 43.3392 122.707 43.7129C121.996 44.0866 121.176 44.2734 120.246 44.2734C119.325 44.2734 118.519 44.1048 117.826 43.7676C117.142 43.4212 116.564 42.9336 116.09 42.3047C115.616 41.6758 115.233 40.9375 114.941 40.0898C114.659 39.2331 114.458 38.2943 114.34 37.2734V36.166C114.458 35.0814 114.659 34.097 114.941 33.2129C115.233 32.3288 115.616 31.5677 116.09 30.9297C116.564 30.2917 117.142 29.7995 117.826 29.4531C118.51 29.1068 119.307 28.9336 120.219 28.9336C121.148 28.9336 121.973 29.1159 122.693 29.4805C123.413 29.8359 124.019 30.3464 124.512 31.0117C125.004 31.668 125.373 32.4609 125.619 33.3906C125.865 34.3112 125.988 35.3366 125.988 36.4668ZM122.693 36.7539V36.4668C122.693 35.7832 122.629 35.1497 122.502 34.5664C122.374 33.974 122.174 33.4544 121.9 33.0078C121.627 32.5612 121.276 32.2148 120.848 31.9688C120.428 31.7135 119.922 31.5859 119.33 31.5859C118.747 31.5859 118.245 31.6862 117.826 31.8867C117.407 32.0781 117.056 32.347 116.773 32.6934C116.491 33.0397 116.272 33.4453 116.117 33.9102C115.962 34.3659 115.853 34.8626 115.789 35.4004V38.0527C115.898 38.709 116.085 39.3105 116.349 39.8574C116.614 40.4043 116.987 40.8418 117.471 41.1699C117.963 41.4889 118.592 41.6484 119.357 41.6484C119.95 41.6484 120.456 41.5208 120.875 41.2656C121.294 41.0104 121.636 40.6595 121.9 40.2129C122.174 39.7572 122.374 39.2331 122.502 38.6406C122.629 38.0482 122.693 37.4193 122.693 36.7539Z" fill="url(#paint1_linear_513_2066)"/>
<defs>
<radialGradient id="paint0_radial_513_2066" cx="0" cy="0" r="1" gradientUnits="userSpaceOnUse" gradientTransform="translate(81 146.2) scale(174.15 73.1)">
<stop stop-color="white" stop-opacity="0.24"/>
<stop offset="1" stop-color="white" stop-opacity="0"/>
</radialGradient>
<linearGradient id="paint1_linear_513_2066" x1="81" y1="10" x2="81" y2="58" gradientUnits="userSpaceOnUse">
<stop offset="0.0885" stop-color="white" stop-opacity="0.3"/>
<stop offset="1" stop-color="white"/>
</linearGradient>
</defs>
</svg>
