<svg width="48" height="48" viewBox="0 0 48 48" fill="none" xmlns="http://www.w3.org/2000/svg">
<path d="M17.3216 39.2682C30.9072 39.2682 38.3366 28.009 38.3366 18.2455C38.3366 17.9257 38.3302 17.6074 38.3158 17.2904C39.7614 16.244 41.009 14.9484 42 13.4643C40.6766 14.0529 39.2524 14.4491 37.7584 14.6277C39.2834 13.713 40.454 12.2659 41.0064 10.541C39.5566 11.4014 37.9704 12.0079 36.3164 12.3344C34.9686 10.8982 33.0496 10 30.925 10C26.8462 10 23.5386 13.3089 23.5386 17.3877C23.5386 17.9676 23.6034 18.5314 23.7302 19.0724C17.5915 18.7634 12.1482 15.8233 8.50522 11.3526C7.84908 12.4802 7.50398 13.7617 7.50512 15.0663C7.50512 17.6298 8.80902 19.8928 10.792 21.2168C9.61902 21.1808 8.47184 20.864 7.44688 20.2926C7.44578 20.3236 7.44578 20.3538 7.44578 20.387C7.44578 23.9652 9.99168 26.9528 13.3713 27.6298C12.7366 27.8028 12.0816 27.8902 11.4237 27.8898C10.9486 27.8898 10.4856 27.843 10.0356 27.7566C10.9759 30.6924 13.7025 32.8288 16.9353 32.8884C14.4073 34.8706 11.2229 36.0512 7.7618 36.0512C7.17304 36.0516 6.58474 36.0176 6 35.9488C9.26882 38.0448 13.1499 39.2682 17.3216 39.2682Z" fill="#9B96B0"/>
</svg>
