<svg width="48" height="48" viewBox="0 0 48 48" fill="none" xmlns="http://www.w3.org/2000/svg">
<path d="M24.7976 36.8698L17.4118 36.7348C15.0204 36.6878 12.6231 36.7816 10.2786 36.294C6.71215 35.5654 6.45947 31.993 6.19509 28.9964C5.83079 24.7836 5.97183 20.4942 6.65929 16.3166C7.04739 13.9725 8.57473 12.5738 10.9367 12.4216C18.9101 11.8692 26.9364 11.9346 34.8922 12.1923C35.7324 12.216 36.5784 12.3451 37.4068 12.4921C41.4966 13.2089 41.5962 17.2573 41.8614 20.6652C42.1258 24.1084 42.014 27.5692 41.5088 30.9888C41.1034 33.8202 40.3276 36.1946 37.0542 36.4238C32.9528 36.7236 28.9456 36.965 24.8328 36.888C24.833 36.8698 24.8092 36.8698 24.7976 36.8698ZM20.4554 29.7016C23.5462 27.927 26.578 26.182 29.651 24.4192C26.5544 22.6448 23.5284 20.8998 20.4554 19.137V29.7016Z" fill="#9B96B0"/>
</svg>
