<?xml version="1.0" encoding="UTF-8"?>
<svg width="1440" height="1000" viewBox="0 0 1440 1000" fill="none" xmlns="http://www.w3.org/2000/svg">
  <g opacity="0.2">
    <!-- Horizontal Lines -->
    <line x1="0" y1="100" x2="1440" y2="100" stroke="#0050FF" stroke-width="0.5" stroke-opacity="0.2"/>
    <line x1="0" y1="200" x2="1440" y2="200" stroke="#0050FF" stroke-width="0.5" stroke-opacity="0.2"/>
    <line x1="0" y1="300" x2="1440" y2="300" stroke="#0050FF" stroke-width="0.5" stroke-opacity="0.2"/>
    <line x1="0" y1="400" x2="1440" y2="400" stroke="#0050FF" stroke-width="0.5" stroke-opacity="0.2"/>
    <line x1="0" y1="500" x2="1440" y2="500" stroke="#0050FF" stroke-width="0.5" stroke-opacity="0.2"/>
    <line x1="0" y1="600" x2="1440" y2="600" stroke="#0050FF" stroke-width="0.5" stroke-opacity="0.2"/>
    <line x1="0" y1="700" x2="1440" y2="700" stroke="#0050FF" stroke-width="0.5" stroke-opacity="0.2"/>
    <line x1="0" y1="800" x2="1440" y2="800" stroke="#0050FF" stroke-width="0.5" stroke-opacity="0.2"/>
    <line x1="0" y1="900" x2="1440" y2="900" stroke="#0050FF" stroke-width="0.5" stroke-opacity="0.2"/>
    
    <!-- Vertical Lines -->
    <line x1="100" y1="0" x2="100" y2="1000" stroke="#0050FF" stroke-width="0.5" stroke-opacity="0.2"/>
    <line x1="200" y1="0" x2="200" y2="1000" stroke="#0050FF" stroke-width="0.5" stroke-opacity="0.2"/>
    <line x1="300" y1="0" x2="300" y2="1000" stroke="#0050FF" stroke-width="0.5" stroke-opacity="0.2"/>
    <line x1="400" y1="0" x2="400" y2="1000" stroke="#0050FF" stroke-width="0.5" stroke-opacity="0.2"/>
    <line x1="500" y1="0" x2="500" y2="1000" stroke="#0050FF" stroke-width="0.5" stroke-opacity="0.2"/>
    <line x1="600" y1="0" x2="600" y2="1000" stroke="#0050FF" stroke-width="0.5" stroke-opacity="0.2"/>
    <line x1="700" y1="0" x2="700" y2="1000" stroke="#0050FF" stroke-width="0.5" stroke-opacity="0.2"/>
    <line x1="800" y1="0" x2="800" y2="1000" stroke="#0050FF" stroke-width="0.5" stroke-opacity="0.2"/>
    <line x1="900" y1="0" x2="900" y2="1000" stroke="#0050FF" stroke-width="0.5" stroke-opacity="0.2"/>
    <line x1="1000" y1="0" x2="1000" y2="1000" stroke="#0050FF" stroke-width="0.5" stroke-opacity="0.2"/>
    <line x1="1100" y1="0" x2="1100" y2="1000" stroke="#0050FF" stroke-width="0.5" stroke-opacity="0.2"/>
    <line x1="1200" y1="0" x2="1200" y2="1000" stroke="#0050FF" stroke-width="0.5" stroke-opacity="0.2"/>
    <line x1="1300" y1="0" x2="1300" y2="1000" stroke="#0050FF" stroke-width="0.5" stroke-opacity="0.2"/>
    <line x1="1400" y1="0" x2="1400" y2="1000" stroke="#0050FF" stroke-width="0.5" stroke-opacity="0.2"/>
    
    <!-- Connection Nodes -->
    <circle cx="300" cy="200" r="3" fill="#0050FF" opacity="0.6"/>
    <circle cx="500" cy="300" r="2" fill="#0050FF" opacity="0.5"/>
    <circle cx="700" cy="400" r="4" fill="#0050FF" opacity="0.7"/>
    <circle cx="900" cy="200" r="2" fill="#0050FF" opacity="0.5"/>
    <circle cx="1100" cy="600" r="3" fill="#0050FF" opacity="0.6"/>
    <circle cx="400" cy="700" r="2" fill="#0050FF" opacity="0.5"/>
    <circle cx="800" cy="800" r="3" fill="#0050FF" opacity="0.6"/>
    <circle cx="600" cy="500" r="4" fill="#0050FF" opacity="0.7"/>
    <circle cx="1000" cy="400" r="2" fill="#0050FF" opacity="0.5"/>
    <circle cx="200" cy="600" r="3" fill="#0050FF" opacity="0.6"/>
    
    <!-- Connection Lines -->
    <line x1="300" y1="200" x2="500" y2="300" stroke="#0050FF" stroke-width="1" stroke-opacity="0.4"/>
    <line x1="500" y1="300" x2="700" y2="400" stroke="#0050FF" stroke-width="1" stroke-opacity="0.4"/>
    <line x1="700" y1="400" x2="900" y2="200" stroke="#0050FF" stroke-width="1" stroke-opacity="0.4"/>
    <line x1="900" y1="200" x2="1100" y2="600" stroke="#0050FF" stroke-width="1" stroke-opacity="0.4"/>
    <line x1="1100" y1="600" x2="800" y2="800" stroke="#0050FF" stroke-width="1" stroke-opacity="0.4"/>
    <line x1="800" y1="800" x2="400" y2="700" stroke="#0050FF" stroke-width="1" stroke-opacity="0.4"/>
    <line x1="400" y1="700" x2="200" y2="600" stroke="#0050FF" stroke-width="1" stroke-opacity="0.4"/>
    <line x1="200" y1="600" x2="300" y2="200" stroke="#0050FF" stroke-width="1" stroke-opacity="0.4"/>
    <line x1="600" y1="500" x2="300" y2="200" stroke="#0050FF" stroke-width="1" stroke-opacity="0.4"/>
    <line x1="600" y1="500" x2="700" y2="400" stroke="#0050FF" stroke-width="1" stroke-opacity="0.4"/>
    <line x1="600" y1="500" x2="1000" y2="400" stroke="#0050FF" stroke-width="1" stroke-opacity="0.4"/>
    <line x1="1000" y1="400" x2="900" y2="200" stroke="#0050FF" stroke-width="1" stroke-opacity="0.4"/>
    <line x1="600" y1="500" x2="400" y2="700" stroke="#0050FF" stroke-width="1" stroke-opacity="0.4"/>
  </g>
</svg> 